STARTFONT 2.1
COMMENT
COMMENT Converted from OpenType font "cor2.ttf" by "otf2bdf 3.0".
COMMENT
FONT -FreeType-Px437 Cordata PPC 400-Medium-R-Normal--58-580-72-72-P-213-ISO10646-1
SIZE 58 72 72
FONTBOUNDINGBOX 29 59 0 -15
STARTPROPERTIES 19
FOUNDRY "FreeType"
FAMILY_NAME "Px437 Cordata PPC 400"
WEIGHT_NAME "Medium"
SLANT "R"
SETWIDTH_NAME "Normal"
ADD_STYLE_NAME ""
PIXEL_SIZE 58
POINT_SIZE 580
RESOLUTION_X 72
RESOLUTION_Y 72
SPACING "P"
AVERAGE_WIDTH 213
CHARSET_REGISTRY "ISO10646"
CHARSET_ENCODING "1"
FONT_ASCENT 43
FONT_DESCENT 14
COPYRIGHT "Outline (vector) version by VileR, 2020"
_OTF_FONTFILE "cor2.ttf"
_OTF_PSNAME "Px437_Cordata_PPC-400"
ENDPROPERTIES
CHARS 288
STARTCHAR 0000
ENCODING 0
SWIDTH 500 0
DWIDTH 29 0
BBX 0 0 0 0
BITMAP
ENDCHAR
STARTCHAR 0001
ENCODING 1
SWIDTH 500 0
DWIDTH 29 0
BBX 21 40 4 0
BITMAP
7FFFF0
7FFFF0
7FFFF0
7FFFF0
F800F8
F800F8
F800F8
E00038
E00038
E00038
E00038
E78F38
E78F38
E78F38
E78F38
E00038
E00038
E00038
E00038
E00038
E00038
E00038
E00038
E00038
E00038
E7FF38
E7FF38
E7FF38
E7FF38
E07038
E07038
E07038
E07038
F800F8
F800F8
F800F8
7FFFF0
7FFFF0
7FFFF0
7FFFF0
ENDCHAR
STARTCHAR 0002
ENCODING 2
SWIDTH 500 0
DWIDTH 29 0
BBX 21 40 4 0
BITMAP
1FFFC0
1FFFC0
1FFFC0
1FFFC0
FFFFF8
FFFFF8
FFFFF8
FFFFF8
FFFFF8
FFFFF8
FFFFF8
F870F8
F870F8
F870F8
F870F8
FFFFF8
FFFFF8
FFFFF8
FFFFF8
FFFFF8
FFFFF8
FFFFF8
FFFFF8
FFFFF8
FFFFF8
FFFFF8
F800F8
F800F8
F800F8
FF8FF8
FF8FF8
FF8FF8
FF8FF8
FFFFF8
FFFFF8
FFFFF8
1FFFC0
1FFFC0
1FFFC0
1FFFC0
ENDCHAR
STARTCHAR 0003
ENCODING 3
SWIDTH 500 0
DWIDTH 29 0
BBX 21 36 4 0
BITMAP
1F8FC0
1F8FC0
1F8FC0
7FFFF0
7FFFF0
7FFFF0
7FFFF0
FFFFF8
FFFFF8
FFFFF8
FFFFF8
FFFFF8
FFFFF8
FFFFF8
FFFFF8
FFFFF8
FFFFF8
FFFFF8
7FFFF0
7FFFF0
7FFFF0
7FFFF0
1FFFC0
1FFFC0
1FFFC0
07FF00
07FF00
07FF00
07FF00
01FC00
01FC00
01FC00
007000
007000
007000
007000
ENDCHAR
STARTCHAR 0004
ENCODING 4
SWIDTH 500 0
DWIDTH 29 0
BBX 21 32 4 4
BITMAP
007000
007000
007000
01FC00
01FC00
01FC00
01FC00
1FFFC0
1FFFC0
1FFFC0
1FFFC0
7FFFF0
7FFFF0
7FFFF0
FFFFF8
FFFFF8
FFFFF8
FFFFF8
7FFFF0
7FFFF0
7FFFF0
7FFFF0
1FFFC0
1FFFC0
1FFFC0
01FC00
01FC00
01FC00
01FC00
007000
007000
007000
ENDCHAR
STARTCHAR 0005
ENCODING 5
SWIDTH 500 0
DWIDTH 29 0
BBX 25 40 2 0
BITMAP
007F0000
007F0000
007F0000
007F0000
01FFC000
01FFC000
01FFC000
01FFC000
01FFC000
01FFC000
01FFC000
007F0000
007F0000
007F0000
007F0000
3E1C3E00
3E1C3E00
3E1C3E00
FFE3FF80
FFE3FF80
FFE3FF80
FFE3FF80
FFE3FF80
FFE3FF80
FFE3FF80
FFFFFF80
3E1C3E00
3E1C3E00
3E1C3E00
007F0000
007F0000
007F0000
007F0000
007F0000
007F0000
007F0000
01FFC000
01FFC000
01FFC000
01FFC000
ENDCHAR
STARTCHAR 0006
ENCODING 6
SWIDTH 500 0
DWIDTH 29 0
BBX 21 40 4 0
BITMAP
007000
007000
007000
007000
01FC00
01FC00
01FC00
07FF00
07FF00
07FF00
07FF00
1FFFC0
1FFFC0
1FFFC0
1FFFC0
7FFFF0
7FFFF0
7FFFF0
FFFFF8
FFFFF8
FFFFF8
FFFFF8
FFFFF8
FFFFF8
FFFFF8
FFFFF8
7FFFF0
7FFFF0
7FFFF0
007000
007000
007000
007000
007000
007000
007000
07FF00
07FF00
07FF00
07FF00
ENDCHAR
STARTCHAR 0007
ENCODING 7
SWIDTH 500 0
DWIDTH 29 0
BBX 15 15 7 7
BITMAP
3FF8
3FF8
3FF8
3FF8
FFFE
FFFE
FFFE
FFFE
FFFE
FFFE
FFFE
3FF8
3FF8
3FF8
3FF8
ENDCHAR
STARTCHAR 0008
ENCODING 8
SWIDTH 500 0
DWIDTH 29 0
BBX 29 59 0 -15
BITMAP
FFFFFFF8
FFFFFFF8
FFFFFFF8
FFFFFFF8
FFFFFFF8
FFFFFFF8
FFFFFFF8
FFFFFFF8
FFFFFFF8
FFFFFFF8
FFFFFFF8
FFFFFFF8
FFFFFFF8
FFFFFFF8
FFFFFFF8
FFFFFFF8
FFFFFFF8
FFFFFFF8
FFFFFFF8
FFFFFFF8
FFFFFFF8
FFFFFFF8
FF800FF8
FF800FF8
FF800FF8
FF800FF8
FE0003F8
FE0003F8
FE0003F8
FE0003F8
FE0003F8
FE0003F8
FE0003F8
FF800FF8
FF800FF8
FF800FF8
FF800FF8
FFFFFFF8
FFFFFFF8
FFFFFFF8
FFFFFFF8
FFFFFFF8
FFFFFFF8
FFFFFFF8
FFFFFFF8
FFFFFFF8
FFFFFFF8
FFFFFFF8
FFFFFFF8
FFFFFFF8
FFFFFFF8
FFFFFFF8
FFFFFFF8
FFFFFFF8
FFFFFFF8
FFFFFFF8
FFFFFFF8
FFFFFFF8
FFFFFFF8
ENDCHAR
STARTCHAR 0009
ENCODING 9
SWIDTH 500 0
DWIDTH 29 0
BBX 21 21 4 4
BITMAP
07FF00
07FF00
07FF00
7E03F0
7E03F0
7E03F0
7E03F0
E00038
E00038
E00038
E00038
E00038
E00038
E00038
7E03F0
7E03F0
7E03F0
7E03F0
07FF00
07FF00
07FF00
ENDCHAR
STARTCHAR 000A
ENCODING 10
SWIDTH 500 0
DWIDTH 29 0
BBX 29 59 0 -15
BITMAP
FFFFFFF8
FFFFFFF8
FFFFFFF8
FFFFFFF8
FFFFFFF8
FFFFFFF8
FFFFFFF8
FFFFFFF8
FFFFFFF8
FFFFFFF8
FFFFFFF8
FFFFFFF8
FFFFFFF8
FFFFFFF8
FFFFFFF8
FFFFFFF8
FFFFFFF8
FFFFFFF8
FFFFFFF8
FF800FF8
FF800FF8
FF800FF8
F87FF0F8
F87FF0F8
F87FF0F8
F87FF0F8
F1FFFC78
F1FFFC78
F1FFFC78
F1FFFC78
F1FFFC78
F1FFFC78
F1FFFC78
F87FF0F8
F87FF0F8
F87FF0F8
F87FF0F8
FF800FF8
FF800FF8
FF800FF8
FFFFFFF8
FFFFFFF8
FFFFFFF8
FFFFFFF8
FFFFFFF8
FFFFFFF8
FFFFFFF8
FFFFFFF8
FFFFFFF8
FFFFFFF8
FFFFFFF8
FFFFFFF8
FFFFFFF8
FFFFFFF8
FFFFFFF8
FFFFFFF8
FFFFFFF8
FFFFFFF8
FFFFFFF8
ENDCHAR
STARTCHAR 000B
ENCODING 11
SWIDTH 500 0
DWIDTH 29 0
BBX 20 40 4 0
BITMAP
01FFC0
01FFC0
01FFC0
01FFC0
003CF0
003CF0
003CF0
007000
007000
007000
007000
01E000
01E000
01E000
01E000
078000
078000
078000
1FFC00
1FFC00
1FFC00
1FFC00
7E0FC0
7E0FC0
7E0FC0
FE0FF0
E000F0
E000F0
E000F0
E000F0
E000F0
E000F0
E000F0
7E0FC0
7E0FC0
7E0FC0
07FC00
07FC00
07FC00
07FC00
ENDCHAR
STARTCHAR 000C
ENCODING 12
SWIDTH 500 0
DWIDTH 29 0
BBX 21 40 4 0
BITMAP
07FF00
07FF00
07FF00
07FF00
7E03F0
7E03F0
7E03F0
E00038
E00038
E00038
E00038
E00038
E00038
E00038
E00038
7E03F0
7E03F0
7E03F0
07FF00
07FF00
07FF00
07FF00
007000
007000
007000
007000
007000
007000
007000
1FFFC0
1FFFC0
1FFFC0
1FFFC0
007000
007000
007000
007000
007000
007000
007000
ENDCHAR
STARTCHAR 000D
ENCODING 13
SWIDTH 500 0
DWIDTH 29 0
BBX 21 40 4 0
BITMAP
007FC0
007FC0
007FC0
007FC0
0070F0
0070F0
0070F0
007038
007038
007038
007038
007038
007038
007038
007038
0070F0
0070F0
0070F0
007000
007000
007000
007000
007000
007000
007000
7FF000
7FF000
7FF000
7FF000
FFF000
FFF000
FFF000
FFF000
FFF000
FFF000
FFF000
7FE000
7FE000
7FE000
7FE000
ENDCHAR
STARTCHAR 000E
ENCODING 14
SWIDTH 500 0
DWIDTH 29 0
BBX 21 40 4 0
BITMAP
07FC00
07FC00
07FC00
07FC00
078FC0
078FC0
078FC0
0780F0
0780F0
0780F0
0780F0
078038
078038
078038
078038
078038
078038
078038
7F8038
7F8038
7F8038
7F8038
FF8038
FF8038
FF8038
FF83F8
FF83F8
FF83F8
FF83F8
7E0FF8
7E0FF8
7E0FF8
7E0FF8
000FF8
000FF8
000FF8
0003F0
0003F0
0003F0
0003F0
ENDCHAR
STARTCHAR 000F
ENCODING 15
SWIDTH 500 0
DWIDTH 29 0
BBX 21 40 4 0
BITMAP
007000
007000
007000
007000
007000
007000
007000
007000
007000
007000
007000
F870F8
F870F8
F870F8
F870F8
01FC00
01FC00
01FC00
FF8FF8
FF8FF8
FF8FF8
FF8FF8
01FC00
01FC00
01FC00
F9FCF8
F870F8
F870F8
F870F8
007000
007000
007000
007000
007000
007000
007000
007000
007000
007000
007000
ENDCHAR
STARTCHAR 0010
ENCODING 16
SWIDTH 500 0
DWIDTH 29 0
BBX 21 40 4 0
BITMAP
E00000
E00000
E00000
E00000
FE0000
FE0000
FE0000
FFE000
FFE000
FFE000
FFE000
FFFC00
FFFC00
FFFC00
FFFC00
FFFFC0
FFFFC0
FFFFC0
FFFFF8
FFFFF8
FFFFF8
FFFFF8
FFFFC0
FFFFC0
FFFFC0
FFFFC0
FFFC00
FFFC00
FFFC00
FFE000
FFE000
FFE000
FFE000
FE0000
FE0000
FE0000
E00000
E00000
E00000
E00000
ENDCHAR
STARTCHAR 0011
ENCODING 17
SWIDTH 500 0
DWIDTH 29 0
BBX 21 40 4 0
BITMAP
000038
000038
000038
000038
0003F8
0003F8
0003F8
003FF8
003FF8
003FF8
003FF8
01FFF8
01FFF8
01FFF8
01FFF8
1FFFF8
1FFFF8
1FFFF8
FFFFF8
FFFFF8
FFFFF8
FFFFF8
1FFFF8
1FFFF8
1FFFF8
1FFFF8
01FFF8
01FFF8
01FFF8
003FF8
003FF8
003FF8
003FF8
0003F8
0003F8
0003F8
000038
000038
000038
000038
ENDCHAR
STARTCHAR 0012
ENCODING 18
SWIDTH 500 0
DWIDTH 29 0
BBX 19 40 5 0
BITMAP
00E000
00E000
00E000
00E000
03F800
03F800
03F800
0FFE00
0FFE00
0FFE00
0FFE00
FFFFE0
FFFFE0
FFFFE0
FFFFE0
00E000
00E000
00E000
00E000
00E000
00E000
00E000
00E000
00E000
00E000
FFFFE0
FFFFE0
FFFFE0
FFFFE0
0FFE00
0FFE00
0FFE00
0FFE00
03F800
03F800
03F800
00E000
00E000
00E000
00E000
ENDCHAR
STARTCHAR 0013
ENCODING 19
SWIDTH 500 0
DWIDTH 29 0
BBX 19 40 5 0
BITMAP
F001E0
F001E0
F001E0
F001E0
F001E0
F001E0
F001E0
F001E0
F001E0
F001E0
F001E0
F001E0
F001E0
F001E0
F001E0
F001E0
F001E0
F001E0
F001E0
F001E0
F001E0
F001E0
F001E0
F001E0
F001E0
F001E0
F001E0
F001E0
F001E0
000000
000000
000000
000000
F001E0
F001E0
F001E0
F001E0
F001E0
F001E0
F001E0
ENDCHAR
STARTCHAR 0014
ENCODING 20
SWIDTH 500 0
DWIDTH 29 0
BBX 25 40 2 0
BITMAP
07FFFF80
07FFFF80
07FFFF80
07FFFF80
3E0F0E00
3E0F0E00
3E0F0E00
F80F0E00
F80F0E00
F80F0E00
F80F0E00
F80F0E00
F80F0E00
F80F0E00
F80F0E00
3E0F0E00
3E0F0E00
3E0F0E00
07FF0E00
07FF0E00
07FF0E00
07FF0E00
000F0E00
000F0E00
000F0E00
000F0E00
000F0E00
000F0E00
000F0E00
000F0E00
000F0E00
000F0E00
000F0E00
000F0E00
000F0E00
000F0E00
000F0E00
000F0E00
000F0E00
000F0E00
ENDCHAR
STARTCHAR 0015
ENCODING 21
SWIDTH 500 0
DWIDTH 29 0
BBX 20 59 5 -15
BITMAP
03FF80
03FF80
03FF80
03FF80
0F01E0
0F01E0
0F01E0
0F01E0
03C000
03C000
03C000
03E000
03E000
03E000
03E000
0FF800
0FF800
0FF800
0FF800
3C1E00
3C1E00
3C1E00
F00780
F00780
F00780
F00780
F001E0
F001E0
F001E0
FC01F0
3C0070
3C0070
3C0070
0F0070
0F0070
0F0070
0F0070
03C1E0
03C1E0
03C1E0
00FF80
00FF80
00FF80
00FF80
007E00
007E00
007E00
007E00
001E00
001E00
001E00
3C0780
3C0780
3C0780
3C0780
0FFE00
0FFE00
0FFE00
0FFE00
ENDCHAR
STARTCHAR 0016
ENCODING 22
SWIDTH 500 0
DWIDTH 29 0
BBX 21 15 4 0
BITMAP
FFFFF8
FFFFF8
FFFFF8
FFFFF8
FFFFF8
FFFFF8
FFFFF8
FFFFF8
FFFFF8
FFFFF8
FFFFF8
FFFFF8
FFFFF8
FFFFF8
FFFFF8
ENDCHAR
STARTCHAR 0017
ENCODING 23
SWIDTH 500 0
DWIDTH 29 0
BBX 19 44 5 -4
BITMAP
00E000
00E000
00E000
00E000
03F800
03F800
03F800
0FFE00
0FFE00
0FFE00
0FFE00
FFFFE0
FFFFE0
FFFFE0
FFFFE0
00E000
00E000
00E000
00E000
00E000
00E000
00E000
00E000
00E000
00E000
FFFFE0
FFFFE0
FFFFE0
FFFFE0
0FFE00
0FFE00
0FFE00
0FFE00
03F800
03F800
03F800
00E000
00E000
00E000
00E000
FFFFE0
FFFFE0
FFFFE0
FFFFE0
ENDCHAR
STARTCHAR 0018
ENCODING 24
SWIDTH 500 0
DWIDTH 29 0
BBX 19 40 5 0
BITMAP
00E000
00E000
00E000
00E000
03F800
03F800
03F800
0FFE00
0FFE00
0FFE00
0FFE00
FFFFE0
FFFFE0
FFFFE0
FFFFE0
00E000
00E000
00E000
00E000
00E000
00E000
00E000
00E000
00E000
00E000
00E000
00E000
00E000
00E000
00E000
00E000
00E000
00E000
00E000
00E000
00E000
00E000
00E000
00E000
00E000
ENDCHAR
STARTCHAR 0019
ENCODING 25
SWIDTH 500 0
DWIDTH 29 0
BBX 19 40 5 0
BITMAP
00E000
00E000
00E000
00E000
00E000
00E000
00E000
00E000
00E000
00E000
00E000
00E000
00E000
00E000
00E000
00E000
00E000
00E000
00E000
00E000
00E000
00E000
00E000
00E000
00E000
FFFFE0
FFFFE0
FFFFE0
FFFFE0
0FFE00
0FFE00
0FFE00
0FFE00
03F800
03F800
03F800
00E000
00E000
00E000
00E000
ENDCHAR
STARTCHAR 001A
ENCODING 26
SWIDTH 500 0
DWIDTH 29 0
BBX 21 26 4 7
BITMAP
01E000
01E000
01E000
01E000
003C00
003C00
003C00
003C00
0003C0
0003C0
0003C0
FFFFF8
FFFFF8
FFFFF8
FFFFF8
0003C0
0003C0
0003C0
003FC0
003C00
003C00
003C00
01E000
01E000
01E000
01E000
ENDCHAR
STARTCHAR 001B
ENCODING 27
SWIDTH 500 0
DWIDTH 29 0
BBX 21 26 4 7
BITMAP
003C00
003C00
003C00
003C00
01E000
01E000
01E000
01E000
1E0000
1E0000
1E0000
FFFFF8
FFFFF8
FFFFF8
FFFFF8
1E0000
1E0000
1E0000
1FE000
01E000
01E000
01E000
003C00
003C00
003C00
003C00
ENDCHAR
STARTCHAR 001C
ENCODING 28
SWIDTH 500 0
DWIDTH 29 0
BBX 21 18 4 11
BITMAP
E00000
E00000
E00000
E00000
E00000
E00000
E00000
E00000
E00000
E00000
E00000
E00000
E00000
E00000
FFFFF8
FFFFF8
FFFFF8
FFFFF8
ENDCHAR
STARTCHAR 001D
ENCODING 29
SWIDTH 500 0
DWIDTH 29 0
BBX 25 18 2 11
BITMAP
01E3C000
01E3C000
01E3C000
01E3C000
1FE3FC00
1FE3FC00
1FE3FC00
FFFFFF80
FFFFFF80
FFFFFF80
FFFFFF80
1FE3FC00
1FE3FC00
1FE3FC00
1FE3FC00
01E3C000
01E3C000
01E3C000
ENDCHAR
STARTCHAR 001E
ENCODING 30
SWIDTH 500 0
DWIDTH 29 0
BBX 25 26 2 7
BITMAP
001C0000
001C0000
001C0000
001C0000
007F0000
007F0000
007F0000
007F0000
01FFC000
01FFC000
01FFC000
07FFF000
07FFF000
07FFF000
07FFF000
1FFFFC00
1FFFFC00
1FFFFC00
3FFFFE00
3FFFFE00
3FFFFE00
3FFFFE00
FFFFFF80
FFFFFF80
FFFFFF80
FFFFFF80
ENDCHAR
STARTCHAR 001F
ENCODING 31
SWIDTH 500 0
DWIDTH 29 0
BBX 25 26 2 7
BITMAP
FFFFFF80
FFFFFF80
FFFFFF80
FFFFFF80
3FFFFE00
3FFFFE00
3FFFFE00
3FFFFE00
1FFFFC00
1FFFFC00
1FFFFC00
07FFF000
07FFF000
07FFF000
07FFF000
01FFC000
01FFC000
01FFC000
01FFC000
007F0000
007F0000
007F0000
001C0000
001C0000
001C0000
001C0000
ENDCHAR
STARTCHAR 0020
ENCODING 32
SWIDTH 500 0
DWIDTH 29 0
BBX 0 0 0 0
BITMAP
ENDCHAR
STARTCHAR 0021
ENCODING 33
SWIDTH 500 0
DWIDTH 29 0
BBX 7 40 11 0
BITMAP
38
38
38
38
FE
FE
FE
FE
FE
FE
FE
FE
FE
FE
FE
FE
FE
FE
38
38
38
38
38
38
38
38
38
38
38
00
00
00
00
38
38
38
38
38
38
38
ENDCHAR
STARTCHAR 0022
ENCODING 34
SWIDTH 500 0
DWIDTH 29 0
BBX 19 15 5 25
BITMAP
FC07E0
FC07E0
FC07E0
FC07E0
FC07E0
FC07E0
FC07E0
3C0780
3C0780
3C0780
3C0780
3C0780
3C0780
3C0780
3C0780
ENDCHAR
STARTCHAR 0023
ENCODING 35
SWIDTH 500 0
DWIDTH 29 0
BBX 29 40 0 0
BITMAP
00003C78
00003C78
00003C78
00003C78
0000F0E0
0000F0E0
0000F0E0
0003C380
0003C380
0003C380
0003C380
01FFFFE0
01FFFFE0
01FFFFE0
01FFFFE0
001E3C00
001E3C00
001E3C00
0078F000
0078F000
0078F000
0078F000
01E3C000
01E3C000
01E3C000
3FFFFC00
3FFFFC00
3FFFFC00
3FFFFC00
0E1E0000
0E1E0000
0E1E0000
0E1E0000
38780000
38780000
38780000
F1E00000
F1E00000
F1E00000
F1E00000
ENDCHAR
STARTCHAR 0024
ENCODING 36
SWIDTH 500 0
DWIDTH 29 0
BBX 25 40 2 0
BITMAP
001C0000
001C0000
001C0000
001C0000
07FFF000
07FFF000
07FFF000
3E1C3F80
3E1C3F80
3E1C3F80
3E1C3F80
F81C0000
F81C0000
F81C0000
F81C0000
3E1C0000
3E1C0000
3E1C0000
01FFF000
01FFF000
01FFF000
01FFF000
001C3E00
001C3E00
001C3E00
001C3F80
001C0F80
001C0F80
001C0F80
FE1C3E00
FE1C3E00
FE1C3E00
FE1C3E00
07FFF000
07FFF000
07FFF000
001C0000
001C0000
001C0000
001C0000
ENDCHAR
STARTCHAR 0025
ENCODING 37
SWIDTH 500 0
DWIDTH 29 0
BBX 25 48 2 -4
BITMAP
00000380
00000380
00000380
00000380
001FFE00
001FFE00
001FFE00
001FFE00
3FF83C00
3FF83C00
3FF83C00
E1E0F000
E1E0F000
E1E0F000
E1E0F000
E1E3C000
E1E3C000
E1E3C000
E1E3C000
3F8F0000
3F8F0000
3F8F0000
001C0000
001C0000
001C0000
001C0000
0078FE00
0078FE00
0078FE00
01FBFF80
01E3C380
01E3C380
01E3C380
0783C380
0783C380
0783C380
0783C380
1E00FE00
1E00FE00
1E00FE00
38000000
38000000
38000000
38000000
E0000000
E0000000
E0000000
E0000000
ENDCHAR
STARTCHAR 0026
ENCODING 38
SWIDTH 500 0
DWIDTH 29 0
BBX 25 40 2 0
BITMAP
07FF0000
07FF0000
07FF0000
07FF0000
1E03C000
1E03C000
1E03C000
1E03C000
1E03C000
1E03C000
1E03C000
1E1F0000
1E1F0000
1E1F0000
1E1F0000
07F80380
07F80380
07F80380
1FE03F80
1FE03F80
1FE03F80
1FE03F80
3878F000
3878F000
3878F000
F87FF000
E00F0000
E00F0000
E00F0000
E00F0000
E00F0000
E00F0000
E00F0000
E00FC380
E00FC380
E00FC380
3FF8FF80
3FF8FF80
3FF8FF80
3FF8FF80
ENDCHAR
STARTCHAR 0027
ENCODING 39
SWIDTH 500 0
DWIDTH 29 0
BBX 7 15 11 25
BITMAP
3E
3E
3E
3E
3E
3E
3E
38
38
38
38
F0
F0
F0
F0
ENDCHAR
STARTCHAR 0028
ENCODING 40
SWIDTH 500 0
DWIDTH 29 0
BBX 11 47 9 -7
BITMAP
01E0
01E0
01E0
01E0
0780
0780
0780
0E00
0E00
0E00
0E00
3C00
3C00
3C00
3C00
F000
F000
F000
F000
F000
F000
F000
F000
F000
F000
F000
F000
F000
F000
F000
F000
F000
F000
3C00
3C00
3C00
0E00
0E00
0E00
0E00
0780
0780
0780
0780
01E0
01E0
01E0
ENDCHAR
STARTCHAR 0029
ENCODING 41
SWIDTH 500 0
DWIDTH 29 0
BBX 11 47 9 -7
BITMAP
F000
F000
F000
F000
3C00
3C00
3C00
0E00
0E00
0E00
0E00
0780
0780
0780
0780
01E0
01E0
01E0
01E0
01E0
01E0
01E0
01E0
01E0
01E0
01E0
01E0
01E0
01E0
01E0
01E0
01E0
01E0
0780
0780
0780
0E00
0E00
0E00
0E00
3C00
3C00
3C00
3C00
F000
F000
F000
ENDCHAR
STARTCHAR 002A
ENCODING 42
SWIDTH 500 0
DWIDTH 29 0
BBX 25 25 2 11
BITMAP
0780F000
0780F000
0780F000
01E3C000
01E3C000
01E3C000
01E3C000
007F0000
007F0000
007F0000
007F0000
FFFFFF80
FFFFFF80
FFFFFF80
007F0000
007F0000
007F0000
007F0000
01E3C000
01E3C000
01E3C000
07E3F000
0780F000
0780F000
0780F000
ENDCHAR
STARTCHAR 002B
ENCODING 43
SWIDTH 500 0
DWIDTH 29 0
BBX 25 26 2 7
BITMAP
001C0000
001C0000
001C0000
001C0000
001C0000
001C0000
001C0000
001C0000
001C0000
001C0000
001C0000
FFFFFF80
FFFFFF80
FFFFFF80
FFFFFF80
001C0000
001C0000
001C0000
001C0000
001C0000
001C0000
001C0000
001C0000
001C0000
001C0000
001C0000
ENDCHAR
STARTCHAR 002C
ENCODING 44
SWIDTH 500 0
DWIDTH 29 0
BBX 9 18 9 -11
BITMAP
3F80
3F80
3F80
3F80
3F80
3F80
3F80
0E00
0E00
0E00
0E00
3C00
3C00
3C00
F000
F000
F000
F000
ENDCHAR
STARTCHAR 002D
ENCODING 45
SWIDTH 500 0
DWIDTH 29 0
BBX 21 4 4 11
BITMAP
FFFFF8
FFFFF8
FFFFF8
FFFFF8
ENDCHAR
STARTCHAR 002E
ENCODING 46
SWIDTH 500 0
DWIDTH 29 0
BBX 7 7 11 0
BITMAP
FE
FE
FE
FE
FE
FE
FE
ENDCHAR
STARTCHAR 002F
ENCODING 47
SWIDTH 500 0
DWIDTH 29 0
BBX 25 48 2 -4
BITMAP
00000380
00000380
00000380
00000380
00000E00
00000E00
00000E00
00000E00
00003C00
00003C00
00003C00
0000F000
0000F000
0000F000
0000F000
0003C000
0003C000
0003C000
0003C000
000F0000
000F0000
000F0000
001C0000
001C0000
001C0000
001C0000
00780000
00780000
00780000
01F80000
01E00000
01E00000
01E00000
07800000
07800000
07800000
07800000
1E000000
1E000000
1E000000
38000000
38000000
38000000
38000000
E0000000
E0000000
E0000000
E0000000
ENDCHAR
STARTCHAR 0030
ENCODING 48
SWIDTH 500 0
DWIDTH 29 0
BBX 23 44 2 0
BITMAP
00000E
00000E
00000E
00000E
01FFFC
01FFFC
01FFFC
01FFFC
1F80FC
1F80FC
1F80FC
3803CE
3803CE
3803CE
3803CE
380F0E
380F0E
380F0E
380F0E
381C0E
381C0E
381C0E
38780E
38780E
38780E
38780E
39E00E
39E00E
39E00E
3FE00E
3F800E
3F800E
3F800E
3E000E
3E000E
3E000E
3E000E
3F80FC
3F80FC
3F80FC
E1FFC0
E1FFC0
E1FFC0
E1FFC0
ENDCHAR
STARTCHAR 0031
ENCODING 49
SWIDTH 500 0
DWIDTH 29 0
BBX 9 40 7 0
BITMAP
0F80
0F80
0F80
0F80
3F80
3F80
3F80
F380
F380
F380
F380
0380
0380
0380
0380
0380
0380
0380
0380
0380
0380
0380
0380
0380
0380
0380
0380
0380
0380
0380
0380
0380
0380
0380
0380
0380
0380
0380
0380
0380
ENDCHAR
STARTCHAR 0032
ENCODING 50
SWIDTH 500 0
DWIDTH 29 0
BBX 21 40 4 0
BITMAP
07FF00
07FF00
07FF00
07FF00
7E03F0
7E03F0
7E03F0
F80038
F80038
F80038
F80038
000038
000038
000038
000038
0000F0
0000F0
0000F0
000F00
000F00
000F00
000F00
007000
007000
007000
07F000
078000
078000
078000
780038
780038
780038
780038
E00038
E00038
E00038
FFFFF8
FFFFF8
FFFFF8
FFFFF8
ENDCHAR
STARTCHAR 0033
ENCODING 51
SWIDTH 500 0
DWIDTH 29 0
BBX 23 44 2 -4
BITMAP
3FFFFE
3FFFFE
3FFFFE
3FFFFE
3800FC
3800FC
3800FC
000FC0
000FC0
000FC0
000FC0
007C00
007C00
007C00
007C00
07FFC0
07FFC0
07FFC0
0000FC
0000FC
0000FC
0000FC
00003E
00003E
00003E
00003E
00003E
00003E
00003E
0000FC
0000FC
0000FC
0000FC
001FC0
001FC0
001FC0
07F800
07F800
07F800
07F800
FE0000
FE0000
FE0000
FE0000
ENDCHAR
STARTCHAR 0034
ENCODING 52
SWIDTH 500 0
DWIDTH 29 0
BBX 23 44 2 -4
BITMAP
000FC0
000FC0
000FC0
000FC0
001FC0
001FC0
001FC0
007BC0
007BC0
007BC0
007BC0
01E3C0
01E3C0
01E3C0
01E3C0
0783C0
0783C0
0783C0
1E03C0
1E03C0
1E03C0
1E03C0
3803C0
3803C0
3803C0
FFFFFE
FFFFFE
FFFFFE
FFFFFE
0003C0
0003C0
0003C0
0003C0
0003C0
0003C0
0003C0
0003C0
0003C0
0003C0
0003C0
0003C0
0003C0
0003C0
0003C0
ENDCHAR
STARTCHAR 0035
ENCODING 53
SWIDTH 500 0
DWIDTH 29 0
BBX 23 44 2 -4
BITMAP
3FFFFE
3FFFFE
3FFFFE
3FFFFE
380000
380000
380000
380000
380000
380000
380000
380000
380000
380000
380000
3FFFC0
3FFFC0
3FFFC0
3E00FC
3E00FC
3E00FC
3E00FC
00003E
00003E
00003E
00003E
00003E
00003E
00003E
0000FC
0000FC
0000FC
0000FC
001FC0
001FC0
001FC0
07F800
07F800
07F800
07F800
FE0000
FE0000
FE0000
FE0000
ENDCHAR
STARTCHAR 0036
ENCODING 54
SWIDTH 500 0
DWIDTH 29 0
BBX 21 44 4 0
BITMAP
003FC0
003FC0
003FC0
003FC0
01F000
01F000
01F000
01F000
1F8000
1F8000
1F8000
7E0000
7E0000
7E0000
7E0000
F80000
F80000
F80000
F80000
FFFF00
FFFF00
FFFF00
F803F0
F803F0
F803F0
F803F0
E00038
E00038
E00038
E00038
E00038
E00038
E00038
E00038
E00038
E00038
E00038
7E03F0
7E03F0
7E03F0
07FF00
07FF00
07FF00
07FF00
ENDCHAR
STARTCHAR 0037
ENCODING 55
SWIDTH 500 0
DWIDTH 29 0
BBX 21 40 4 0
BITMAP
FFFFF8
FFFFF8
FFFFF8
FFFFF8
E00038
E00038
E00038
000038
000038
000038
000038
0000F0
0000F0
0000F0
0000F0
0003C0
0003C0
0003C0
000F00
000F00
000F00
000F00
003C00
003C00
003C00
007C00
007000
007000
007000
007000
007000
007000
007000
007000
007000
007000
007000
007000
007000
007000
ENDCHAR
STARTCHAR 0038
ENCODING 56
SWIDTH 500 0
DWIDTH 29 0
BBX 21 40 4 0
BITMAP
07FF00
07FF00
07FF00
07FF00
7800F0
7800F0
7800F0
E00038
E00038
E00038
E00038
E00038
E00038
E00038
E00038
7800F0
7800F0
7800F0
1FFFC0
1FFFC0
1FFFC0
1FFFC0
7800F0
7800F0
7800F0
F800F8
E00038
E00038
E00038
E00038
E00038
E00038
E00038
7800F0
7800F0
7800F0
07FF00
07FF00
07FF00
07FF00
ENDCHAR
STARTCHAR 0039
ENCODING 57
SWIDTH 500 0
DWIDTH 29 0
BBX 21 44 4 -4
BITMAP
07FF00
07FF00
07FF00
07FF00
7E03F0
7E03F0
7E03F0
E00038
E00038
E00038
E00038
E00038
E00038
E00038
E00038
E00038
E00038
E00038
7E00F8
7E00F8
7E00F8
7E00F8
07FFF8
07FFF8
07FFF8
07FFF8
0000F8
0000F8
0000F8
0003F0
0003F0
0003F0
0003F0
000FC0
000FC0
000FC0
007C00
007C00
007C00
007C00
1FE000
1FE000
1FE000
1FE000
ENDCHAR
STARTCHAR 003A
ENCODING 58
SWIDTH 500 0
DWIDTH 29 0
BBX 7 25 11 0
BITMAP
FE
FE
FE
FE
FE
FE
FE
00
00
00
00
00
00
00
00
00
00
00
FE
FE
FE
FE
FE
FE
FE
ENDCHAR
STARTCHAR 003B
ENCODING 59
SWIDTH 500 0
DWIDTH 29 0
BBX 9 36 9 -11
BITMAP
3F80
3F80
3F80
3F80
3F80
3F80
3F80
0000
0000
0000
0000
0000
0000
0000
0000
0000
0000
0000
3F80
3F80
3F80
3F80
3F80
3F80
3F80
0E00
0E00
0E00
0E00
3C00
3C00
3C00
F000
F000
F000
F000
ENDCHAR
STARTCHAR 003C
ENCODING 60
SWIDTH 500 0
DWIDTH 29 0
BBX 21 40 4 0
BITMAP
000038
000038
000038
000038
0003C0
0003C0
0003C0
003C00
003C00
003C00
003C00
01E000
01E000
01E000
01E000
1E0000
1E0000
1E0000
E00000
E00000
E00000
E00000
1E0000
1E0000
1E0000
1FE000
01E000
01E000
01E000
003C00
003C00
003C00
003C00
0003C0
0003C0
0003C0
000038
000038
000038
000038
ENDCHAR
STARTCHAR 003D
ENCODING 61
SWIDTH 500 0
DWIDTH 29 0
BBX 21 14 4 11
BITMAP
FFFFF8
FFFFF8
FFFFF8
000000
000000
000000
000000
000000
000000
000000
FFFFF8
FFFFF8
FFFFF8
FFFFF8
ENDCHAR
STARTCHAR 003E
ENCODING 62
SWIDTH 500 0
DWIDTH 29 0
BBX 21 40 4 0
BITMAP
E00000
E00000
E00000
E00000
1E0000
1E0000
1E0000
01E000
01E000
01E000
01E000
003C00
003C00
003C00
003C00
0003C0
0003C0
0003C0
000038
000038
000038
000038
0003C0
0003C0
0003C0
003FC0
003C00
003C00
003C00
01E000
01E000
01E000
01E000
1E0000
1E0000
1E0000
E00000
E00000
E00000
E00000
ENDCHAR
STARTCHAR 003F
ENCODING 63
SWIDTH 500 0
DWIDTH 29 0
BBX 23 40 4 0
BITMAP
1FFFC0
1FFFC0
1FFFC0
1FFFC0
F800F8
F800F8
F800F8
F8003E
F8003E
F8003E
F8003E
000038
000038
000038
000038
0000F0
0000F0
0000F0
000F00
000F00
000F00
000F00
007000
007000
007000
007000
007000
007000
007000
000000
000000
000000
000000
007000
007000
007000
007000
007000
007000
007000
ENDCHAR
STARTCHAR 0040
ENCODING 64
SWIDTH 500 0
DWIDTH 29 0
BBX 21 40 4 0
BITMAP
07FF00
07FF00
07FF00
07FF00
7E03F0
7E03F0
7E03F0
F80038
F80038
F80038
F80038
E07FF8
E07FF8
E07FF8
E07FF8
E1E038
E1E038
E1E038
E1E038
E1E038
E1E038
E1E038
E1E038
E1E038
E1E038
E1FFF8
E07FF0
E07FF0
E07FF0
E00000
E00000
E00000
E00000
7E00F8
7E00F8
7E00F8
07FFF0
07FFF0
07FFF0
07FFF0
ENDCHAR
STARTCHAR 0041
ENCODING 65
SWIDTH 500 0
DWIDTH 29 0
BBX 25 40 2 0
BITMAP
07FC0000
07FC0000
07FC0000
07FC0000
007F0000
007F0000
007F0000
01E3C000
01E3C000
01E3C000
01E3C000
01E3C000
01E3C000
01E3C000
01E3C000
0780F000
0780F000
0780F000
0780F000
0780F000
0780F000
0780F000
1E003C00
1E003C00
1E003C00
1FFFFC00
1FFFFC00
1FFFFC00
1FFFFC00
38000E00
38000E00
38000E00
38000E00
38000E00
38000E00
38000E00
FE003F80
FE003F80
FE003F80
FE003F80
ENDCHAR
STARTCHAR 0042
ENCODING 66
SWIDTH 500 0
DWIDTH 29 0
BBX 23 40 2 0
BITMAP
FFFFF0
FFFFF0
FFFFF0
FFFFF0
1E003C
1E003C
1E003C
1E000E
1E000E
1E000E
1E000E
1E000E
1E000E
1E000E
1E000E
1E003C
1E003C
1E003C
1FFFF0
1FFFF0
1FFFF0
1FFFF0
1E003C
1E003C
1E003C
1E003E
1E000E
1E000E
1E000E
1E000E
1E000E
1E000E
1E000E
1E003C
1E003C
1E003C
FFFFF0
FFFFF0
FFFFF0
FFFFF0
ENDCHAR
STARTCHAR 0043
ENCODING 67
SWIDTH 500 0
DWIDTH 29 0
BBX 23 40 4 0
BITMAP
01FFFE
01FFFE
01FFFE
01FFFE
1F800E
1F800E
1F800E
78000E
78000E
78000E
78000E
E00000
E00000
E00000
E00000
E00000
E00000
E00000
E00000
E00000
E00000
E00000
E00000
E00000
E00000
E0000E
E0000E
E0000E
E0000E
78000E
78000E
78000E
78000E
1F8038
1F8038
1F8038
01FFF0
01FFF0
01FFF0
01FFF0
ENDCHAR
STARTCHAR 0044
ENCODING 68
SWIDTH 500 0
DWIDTH 29 0
BBX 23 40 2 0
BITMAP
FFFF00
FFFF00
FFFF00
FFFF00
1E03F0
1E03F0
1E03F0
1E003C
1E003C
1E003C
1E003C
1E000E
1E000E
1E000E
1E000E
1E000E
1E000E
1E000E
1E000E
1E000E
1E000E
1E000E
1E000E
1E000E
1E000E
1E000E
1E000E
1E000E
1E000E
1E003C
1E003C
1E003C
1E003C
1E03F0
1E03F0
1E03F0
FFFF00
FFFF00
FFFF00
FFFF00
ENDCHAR
STARTCHAR 0045
ENCODING 69
SWIDTH 500 0
DWIDTH 29 0
BBX 23 40 2 0
BITMAP
FFFFFE
FFFFFE
FFFFFE
FFFFFE
1E000E
1E000E
1E000E
1E000E
1E000E
1E000E
1E000E
1E0000
1E0000
1E0000
1E0000
1E0F00
1E0F00
1E0F00
1FFF00
1FFF00
1FFF00
1FFF00
1E0F00
1E0F00
1E0F00
1E0F00
1E0000
1E0000
1E0000
1E000E
1E000E
1E000E
1E000E
1E000E
1E000E
1E000E
FFFFFE
FFFFFE
FFFFFE
FFFFFE
ENDCHAR
STARTCHAR 0046
ENCODING 70
SWIDTH 500 0
DWIDTH 29 0
BBX 23 40 2 0
BITMAP
FFFFFE
FFFFFE
FFFFFE
FFFFFE
1E000E
1E000E
1E000E
1E000E
1E000E
1E000E
1E000E
1E0000
1E0000
1E0000
1E0000
1E0F00
1E0F00
1E0F00
1FFF00
1FFF00
1FFF00
1FFF00
1E0F00
1E0F00
1E0F00
1E0F00
1E0000
1E0000
1E0000
1E0000
1E0000
1E0000
1E0000
1E0000
1E0000
1E0000
FFE000
FFE000
FFE000
FFE000
ENDCHAR
STARTCHAR 0047
ENCODING 71
SWIDTH 500 0
DWIDTH 29 0
BBX 23 40 4 0
BITMAP
01FFF8
01FFF8
01FFF8
01FFF8
1F8038
1F8038
1F8038
780038
780038
780038
780038
E00000
E00000
E00000
E00000
E00000
E00000
E00000
E00000
E00000
E00000
E00000
E00FFE
E00FFE
E00FFE
E00FFE
E00038
E00038
E00038
780038
780038
780038
780038
1F8038
1F8038
1F8038
01FFF8
01FFF8
01FFF8
01FFF8
ENDCHAR
STARTCHAR 0048
ENCODING 72
SWIDTH 500 0
DWIDTH 29 0
BBX 25 40 2 0
BITMAP
FE003F80
FE003F80
FE003F80
FE003F80
38000E00
38000E00
38000E00
38000E00
38000E00
38000E00
38000E00
38000E00
38000E00
38000E00
38000E00
38000E00
38000E00
38000E00
3FFFFE00
3FFFFE00
3FFFFE00
3FFFFE00
38000E00
38000E00
38000E00
38000E00
38000E00
38000E00
38000E00
38000E00
38000E00
38000E00
38000E00
38000E00
38000E00
38000E00
FE003F80
FE003F80
FE003F80
FE003F80
ENDCHAR
STARTCHAR 0049
ENCODING 73
SWIDTH 500 0
DWIDTH 29 0
BBX 15 40 7 0
BITMAP
FFFE
FFFE
FFFE
FFFE
0380
0380
0380
0380
0380
0380
0380
0380
0380
0380
0380
0380
0380
0380
0380
0380
0380
0380
0380
0380
0380
0380
0380
0380
0380
0380
0380
0380
0380
0380
0380
0380
FFFE
FFFE
FFFE
FFFE
ENDCHAR
STARTCHAR 004A
ENCODING 74
SWIDTH 500 0
DWIDTH 29 0
BBX 25 40 2 0
BITMAP
001FFF80
001FFF80
001FFF80
001FFF80
0000F000
0000F000
0000F000
0000F000
0000F000
0000F000
0000F000
0000F000
0000F000
0000F000
0000F000
0000F000
0000F000
0000F000
0000F000
0000F000
0000F000
0000F000
0000F000
0000F000
0000F000
E000F000
E000F000
E000F000
E000F000
E000F000
E000F000
E000F000
E000F000
3803F000
3803F000
3803F000
07FF0000
07FF0000
07FF0000
07FF0000
ENDCHAR
STARTCHAR 004B
ENCODING 75
SWIDTH 500 0
DWIDTH 29 0
BBX 25 40 2 0
BITMAP
FE00FF80
FE00FF80
FE00FF80
FE00FF80
3800FC00
3800FC00
3800FC00
380FC000
380FC000
380FC000
380FC000
387C0000
387C0000
387C0000
387C0000
3FF80000
3FF80000
3FF80000
3FFC0000
3FFC0000
3FFC0000
3FFC0000
380F0000
380F0000
380F0000
380FC000
3803C000
3803C000
3803C000
3800F000
3800F000
3800F000
3800F000
38003E00
38003E00
38003E00
FE00FF80
FE00FF80
FE00FF80
FE00FF80
ENDCHAR
STARTCHAR 004C
ENCODING 76
SWIDTH 500 0
DWIDTH 29 0
BBX 23 40 2 0
BITMAP
FFE000
FFE000
FFE000
FFE000
1E0000
1E0000
1E0000
1E0000
1E0000
1E0000
1E0000
1E0000
1E0000
1E0000
1E0000
1E0000
1E0000
1E0000
1E0000
1E0000
1E0000
1E0000
1E0000
1E0000
1E0000
1E0000
1E0000
1E0000
1E0000
1E000E
1E000E
1E000E
1E000E
1E003E
1E003E
1E003E
FFFFFE
FFFFFE
FFFFFE
FFFFFE
ENDCHAR
STARTCHAR 004D
ENCODING 77
SWIDTH 500 0
DWIDTH 29 0
BBX 25 40 2 0
BITMAP
FE003F80
FE003F80
FE003F80
FE003F80
3F80FE00
3F80FE00
3F80FE00
39E3CE00
39E3CE00
39E3CE00
39E3CE00
39FFCE00
39FFCE00
39FFCE00
39FFCE00
387F0E00
387F0E00
387F0E00
381C0E00
381C0E00
381C0E00
381C0E00
38000E00
38000E00
38000E00
38000E00
38000E00
38000E00
38000E00
38000E00
38000E00
38000E00
38000E00
38000E00
38000E00
38000E00
FE003F80
FE003F80
FE003F80
FE003F80
ENDCHAR
STARTCHAR 004E
ENCODING 78
SWIDTH 500 0
DWIDTH 29 0
BBX 25 40 2 0
BITMAP
FE003F80
FE003F80
FE003F80
FE003F80
3F800E00
3F800E00
3F800E00
3FE00E00
3FE00E00
3FE00E00
3FE00E00
39F80E00
39F80E00
39F80E00
39F80E00
387C0E00
387C0E00
387C0E00
381F0E00
381F0E00
381F0E00
381F0E00
380FCE00
380FCE00
380FCE00
380FFE00
3803FE00
3803FE00
3803FE00
3800FE00
3800FE00
3800FE00
3800FE00
38003E00
38003E00
38003E00
FE000E00
FE000E00
FE000E00
FE000E00
ENDCHAR
STARTCHAR 004F
ENCODING 79
SWIDTH 500 0
DWIDTH 29 0
BBX 25 40 2 0
BITMAP
01FFC000
01FFC000
01FFC000
01FFC000
1F80FC00
1F80FC00
1F80FC00
38000E00
38000E00
38000E00
38000E00
E0000380
E0000380
E0000380
E0000380
E0000380
E0000380
E0000380
E0000380
E0000380
E0000380
E0000380
E0000380
E0000380
E0000380
E0000380
E0000380
E0000380
E0000380
38000E00
38000E00
38000E00
38000E00
1F80FC00
1F80FC00
1F80FC00
01FFC000
01FFC000
01FFC000
01FFC000
ENDCHAR
STARTCHAR 0050
ENCODING 80
SWIDTH 500 0
DWIDTH 29 0
BBX 23 40 2 0
BITMAP
FFFFC0
FFFFC0
FFFFC0
FFFFC0
3800FC
3800FC
3800FC
38003E
38003E
38003E
38003E
38003E
38003E
38003E
38003E
3800FC
3800FC
3800FC
3FFFC0
3FFFC0
3FFFC0
3FFFC0
380000
380000
380000
380000
380000
380000
380000
380000
380000
380000
380000
380000
380000
380000
FE0000
FE0000
FE0000
FE0000
ENDCHAR
STARTCHAR 0051
ENCODING 81
SWIDTH 500 0
DWIDTH 29 0
BBX 25 47 2 -7
BITMAP
01FFC000
01FFC000
01FFC000
01FFC000
1F80FC00
1F80FC00
1F80FC00
38000E00
38000E00
38000E00
38000E00
E0000380
E0000380
E0000380
E0000380
E0000380
E0000380
E0000380
E0000380
E0000380
E0000380
E0000380
E0000380
E0000380
E0000380
E0000380
E0000380
E0000380
E0000380
387C0E00
387C0E00
387C0E00
387C0E00
1F8FFC00
1F8FFC00
1F8FFC00
01FFC000
01FFC000
01FFC000
01FFC000
0000F000
0000F000
0000F000
0000F000
00003E00
00003E00
00003E00
ENDCHAR
STARTCHAR 0052
ENCODING 82
SWIDTH 500 0
DWIDTH 29 0
BBX 25 40 2 0
BITMAP
FFFFF000
FFFFF000
FFFFF000
FFFFF000
38003C00
38003C00
38003C00
38000E00
38000E00
38000E00
38000E00
38000E00
38000E00
38000E00
38000E00
38003C00
38003C00
38003C00
3FFFF000
3FFFF000
3FFFF000
3FFFF000
3803C000
3803C000
3803C000
3803F000
3800F000
3800F000
3800F000
38003C00
38003C00
38003C00
38003C00
38003C00
38003C00
38003C00
FE003F80
FE003F80
FE003F80
FE003F80
ENDCHAR
STARTCHAR 0053
ENCODING 83
SWIDTH 500 0
DWIDTH 29 0
BBX 21 40 4 0
BITMAP
07FFF0
07FFF0
07FFF0
07FFF0
7E03F0
7E03F0
7E03F0
F800F0
F800F0
F800F0
F800F0
F80000
F80000
F80000
F80000
7F8000
7F8000
7F8000
01FC00
01FC00
01FC00
01FC00
000FF0
000FF0
000FF0
000FF8
0000F8
0000F8
0000F8
E000F8
E000F8
E000F8
E000F8
FE03F0
FE03F0
FE03F0
FFFF00
FFFF00
FFFF00
FFFF00
ENDCHAR
STARTCHAR 0054
ENCODING 84
SWIDTH 500 0
DWIDTH 29 0
BBX 25 40 2 0
BITMAP
FFFFFF80
FFFFFF80
FFFFFF80
FFFFFF80
F81C0F80
F81C0F80
F81C0F80
E01C0380
E01C0380
E01C0380
E01C0380
001C0000
001C0000
001C0000
001C0000
001C0000
001C0000
001C0000
001C0000
001C0000
001C0000
001C0000
001C0000
001C0000
001C0000
001C0000
001C0000
001C0000
001C0000
001C0000
001C0000
001C0000
001C0000
001C0000
001C0000
001C0000
01FFC000
01FFC000
01FFC000
01FFC000
ENDCHAR
STARTCHAR 0055
ENCODING 85
SWIDTH 500 0
DWIDTH 29 0
BBX 25 40 2 0
BITMAP
FE003F80
FE003F80
FE003F80
FE003F80
38000E00
38000E00
38000E00
38000E00
38000E00
38000E00
38000E00
38000E00
38000E00
38000E00
38000E00
38000E00
38000E00
38000E00
38000E00
38000E00
38000E00
38000E00
38000E00
38000E00
38000E00
38000E00
38000E00
38000E00
38000E00
38000E00
38000E00
38000E00
38000E00
1F80FC00
1F80FC00
1F80FC00
01FFC000
01FFC000
01FFC000
01FFC000
ENDCHAR
STARTCHAR 0056
ENCODING 86
SWIDTH 500 0
DWIDTH 29 0
BBX 25 40 2 0
BITMAP
FE003F80
FE003F80
FE003F80
FE003F80
38000E00
38000E00
38000E00
38000E00
38000E00
38000E00
38000E00
1E003C00
1E003C00
1E003C00
1E003C00
1E003C00
1E003C00
1E003C00
0780F000
0780F000
0780F000
0780F000
0780F000
0780F000
0780F000
07E3F000
01E3C000
01E3C000
01E3C000
01E3C000
01E3C000
01E3C000
01E3C000
007F0000
007F0000
007F0000
001C0000
001C0000
001C0000
001C0000
ENDCHAR
STARTCHAR 0057
ENCODING 87
SWIDTH 500 0
DWIDTH 29 0
BBX 25 40 2 0
BITMAP
FE003F80
FE003F80
FE003F80
FE003F80
38000E00
38000E00
38000E00
38000E00
38000E00
38000E00
38000E00
38000E00
38000E00
38000E00
38000E00
38000E00
38000E00
38000E00
381C0E00
381C0E00
381C0E00
381C0E00
387F0E00
387F0E00
387F0E00
39FFCE00
39FFCE00
39FFCE00
39FFCE00
39E3CE00
39E3CE00
39E3CE00
39E3CE00
3F80FE00
3F80FE00
3F80FE00
3E003E00
3E003E00
3E003E00
3E003E00
ENDCHAR
STARTCHAR 0058
ENCODING 88
SWIDTH 500 0
DWIDTH 29 0
BBX 25 40 2 0
BITMAP
FF80FF80
FF80FF80
FF80FF80
FF80FF80
1E003C00
1E003C00
1E003C00
0780F000
0780F000
0780F000
0780F000
01E3C000
01E3C000
01E3C000
01E3C000
007F0000
007F0000
007F0000
001C0000
001C0000
001C0000
001C0000
007F0000
007F0000
007F0000
01FFC000
01E3C000
01E3C000
01E3C000
0780F000
0780F000
0780F000
0780F000
1E003C00
1E003C00
1E003C00
FF80FF80
FF80FF80
FF80FF80
FF80FF80
ENDCHAR
STARTCHAR 0059
ENCODING 89
SWIDTH 500 0
DWIDTH 29 0
BBX 25 40 2 0
BITMAP
FF80FF80
FF80FF80
FF80FF80
FF80FF80
1E003C00
1E003C00
1E003C00
0780F000
0780F000
0780F000
0780F000
01E3C000
01E3C000
01E3C000
01E3C000
007F0000
007F0000
007F0000
001C0000
001C0000
001C0000
001C0000
001C0000
001C0000
001C0000
001C0000
001C0000
001C0000
001C0000
001C0000
001C0000
001C0000
001C0000
001C0000
001C0000
001C0000
01FFC000
01FFC000
01FFC000
01FFC000
ENDCHAR
STARTCHAR 005A
ENCODING 90
SWIDTH 500 0
DWIDTH 29 0
BBX 21 40 4 0
BITMAP
FFFFF8
FFFFF8
FFFFF8
FFFFF8
F800F0
F800F0
F800F0
E003C0
E003C0
E003C0
E003C0
000F00
000F00
000F00
000F00
003C00
003C00
003C00
007000
007000
007000
007000
01E000
01E000
01E000
07E000
078000
078000
078000
1E0038
1E0038
1E0038
1E0038
7800F8
7800F8
7800F8
FFFFF8
FFFFF8
FFFFF8
FFFFF8
ENDCHAR
STARTCHAR 005B
ENCODING 91
SWIDTH 500 0
DWIDTH 29 0
BBX 15 48 7 -4
BITMAP
FFFE
FFFE
FFFE
FFFE
F000
F000
F000
F000
F000
F000
F000
F000
F000
F000
F000
F000
F000
F000
F000
F000
F000
F000
F000
F000
F000
F000
F000
F000
F000
F000
F000
F000
F000
F000
F000
F000
F000
F000
F000
F000
F000
F000
F000
F000
FFFE
FFFE
FFFE
FFFE
ENDCHAR
STARTCHAR 005C
ENCODING 92
SWIDTH 500 0
DWIDTH 29 0
BBX 25 48 2 -4
BITMAP
E0000000
E0000000
E0000000
E0000000
38000000
38000000
38000000
38000000
1E000000
1E000000
1E000000
07800000
07800000
07800000
07800000
01E00000
01E00000
01E00000
01E00000
00780000
00780000
00780000
001C0000
001C0000
001C0000
001C0000
000F0000
000F0000
000F0000
000FC000
0003C000
0003C000
0003C000
0000F000
0000F000
0000F000
0000F000
00003C00
00003C00
00003C00
00000E00
00000E00
00000E00
00000E00
00000380
00000380
00000380
00000380
ENDCHAR
STARTCHAR 005D
ENCODING 93
SWIDTH 500 0
DWIDTH 29 0
BBX 15 48 7 -4
BITMAP
FFFE
FFFE
FFFE
FFFE
001E
001E
001E
001E
001E
001E
001E
001E
001E
001E
001E
001E
001E
001E
001E
001E
001E
001E
001E
001E
001E
001E
001E
001E
001E
001E
001E
001E
001E
001E
001E
001E
001E
001E
001E
001E
001E
001E
001E
001E
FFFE
FFFE
FFFE
FFFE
ENDCHAR
STARTCHAR 005E
ENCODING 94
SWIDTH 500 0
DWIDTH 29 0
BBX 19 11 5 29
BITMAP
00E000
00E000
00E000
00E000
0F1E00
0F1E00
0F1E00
F001E0
F001E0
F001E0
F001E0
ENDCHAR
STARTCHAR 005F
ENCODING 95
SWIDTH 500 0
DWIDTH 29 0
BBX 21 4 4 -15
BITMAP
FFFFF8
FFFFF8
FFFFF8
FFFFF8
ENDCHAR
STARTCHAR 0060
ENCODING 96
SWIDTH 500 0
DWIDTH 29 0
BBX 7 15 11 25
BITMAP
F8
F8
F8
F8
F8
F8
F8
38
38
38
38
1E
1E
1E
1E
ENDCHAR
STARTCHAR 0061
ENCODING 97
SWIDTH 500 0
DWIDTH 29 0
BBX 25 29 2 0
BITMAP
1FFFC000
1FFFC000
1FFFC000
1FFFC000
F803F000
F803F000
F803F000
0000F000
0000F000
0000F000
0000F000
07FFF000
07FFF000
07FFF000
3FFFF000
3E00F000
3E00F000
3E00F000
E000F000
E000F000
E000F000
E000F000
F803F380
F803F380
F803F380
1FFF3F80
1FFF3F80
1FFF3F80
1FFF3F80
ENDCHAR
STARTCHAR 0062
ENCODING 98
SWIDTH 500 0
DWIDTH 29 0
BBX 23 40 2 0
BITMAP
FE0000
FE0000
FE0000
FE0000
1E0000
1E0000
1E0000
1E0000
1E0000
1E0000
1E0000
1E7FC0
1E7FC0
1E7FC0
1E7FC0
1FE0FC
1FE0FC
1FE0FC
1E000E
1E000E
1E000E
1E000E
1E000E
1E000E
1E000E
1E000E
1E000E
1E000E
1E000E
1E000E
1E000E
1E000E
1E000E
1FE0FC
1FE0FC
1FE0FC
1E7FC0
1E7FC0
1E7FC0
1E7FC0
ENDCHAR
STARTCHAR 0063
ENCODING 99
SWIDTH 500 0
DWIDTH 29 0
BBX 21 29 4 0
BITMAP
07FFC0
07FFC0
07FFC0
07FFC0
7E03F8
7E03F8
7E03F8
E00038
E00038
E00038
E00038
E00000
E00000
E00000
E00000
E00000
E00000
E00000
E00000
E00000
E00000
E00000
7E00F8
7E00F8
7E00F8
07FF00
07FF00
07FF00
07FF00
ENDCHAR
STARTCHAR 0064
ENCODING 100
SWIDTH 500 0
DWIDTH 29 0
BBX 23 40 4 0
BITMAP
000FF0
000FF0
000FF0
000FF0
0000F0
0000F0
0000F0
0000F0
0000F0
0000F0
0000F0
07FCF0
07FCF0
07FCF0
07FCF0
7E0FF0
7E0FF0
7E0FF0
E000F0
E000F0
E000F0
E000F0
E000F0
E000F0
E000F0
E000F0
E000F0
E000F0
E000F0
E000F0
E000F0
E000F0
E000F0
7E0FF0
7E0FF0
7E0FF0
07FF3E
07FF3E
07FF3E
07FF3E
ENDCHAR
STARTCHAR 0065
ENCODING 101
SWIDTH 500 0
DWIDTH 29 0
BBX 21 29 4 0
BITMAP
07FF00
07FF00
07FF00
07FF00
7E03F0
7E03F0
7E03F0
E00038
E00038
E00038
E00038
FFFFF8
FFFFF8
FFFFF8
FFFFF8
E00000
E00000
E00000
E00000
E00000
E00000
E00000
7E00F8
7E00F8
7E00F8
07FFC0
07FFC0
07FFC0
07FFC0
ENDCHAR
STARTCHAR 0066
ENCODING 102
SWIDTH 500 0
DWIDTH 29 0
BBX 20 40 5 0
BITMAP
00FFE0
00FFE0
00FFE0
00FFE0
03E1F0
03E1F0
03E1F0
03C1F0
03C1F0
03C1F0
03C1F0
03C000
03C000
03C000
03C000
FFFE00
FFFE00
FFFE00
03C000
03C000
03C000
03C000
03C000
03C000
03C000
03C000
03C000
03C000
03C000
03C000
03C000
03C000
03C000
03C000
03C000
03C000
FFFE00
FFFE00
FFFE00
FFFE00
ENDCHAR
STARTCHAR 0067
ENCODING 103
SWIDTH 500 0
DWIDTH 29 0
BBX 25 44 2 -15
BITMAP
01FFFE00
01FFFE00
01FFFE00
01FFFE00
1F80FE00
1F80FE00
1F80FE00
1E00F000
1E00F000
1E00F000
1E00F000
1F83F000
1F83F000
1F83F000
1FFFF000
07FF0000
07FF0000
07FF0000
3E000000
3E000000
3E000000
3E000000
38000000
38000000
38000000
1FFFF000
1FFFF000
1FFFF000
1FFFF000
3E003E00
3E003E00
3E003E00
3E003E00
F8000F80
F8000F80
F8000F80
3E003E00
3E003E00
3E003E00
3E003E00
07FFF000
07FFF000
07FFF000
07FFF000
ENDCHAR
STARTCHAR 0068
ENCODING 104
SWIDTH 500 0
DWIDTH 29 0
BBX 25 40 2 0
BITMAP
F8000000
F8000000
F8000000
F8000000
38000000
38000000
38000000
38000000
38000000
38000000
38000000
39FFC000
39FFC000
39FFC000
39FFC000
3F80FC00
3F80FC00
3F80FC00
3E000E00
3E000E00
3E000E00
3E000E00
38000E00
38000E00
38000E00
38000E00
38000E00
38000E00
38000E00
38000E00
38000E00
38000E00
38000E00
38000E00
38000E00
38000E00
FE003F80
FE003F80
FE003F80
FE003F80
ENDCHAR
STARTCHAR 0069
ENCODING 105
SWIDTH 500 0
DWIDTH 29 0
BBX 15 40 7 0
BITMAP
0F80
0F80
0F80
0F80
0F80
0F80
0F80
0000
0000
0000
0000
FF80
FF80
FF80
FF80
0380
0380
0380
0380
0380
0380
0380
0380
0380
0380
0380
0380
0380
0380
0380
0380
0380
0380
0380
0380
0380
FFFE
FFFE
FFFE
FFFE
ENDCHAR
STARTCHAR 006A
ENCODING 106
SWIDTH 500 0
DWIDTH 29 0
BBX 18 55 2 -15
BITMAP
000FC0
000FC0
000FC0
000FC0
000FC0
000FC0
000FC0
000000
000000
000000
000000
01FFC0
01FFC0
01FFC0
01FFC0
0003C0
0003C0
0003C0
0003C0
0003C0
0003C0
0003C0
0003C0
0003C0
0003C0
0003C0
0003C0
0003C0
0003C0
0003C0
0003C0
0003C0
0003C0
0003C0
0003C0
0003C0
0003C0
0003C0
0003C0
0003C0
F803C0
F803C0
F803C0
F803C0
F80FC0
F80FC0
F80FC0
3E1F00
3E1F00
3E1F00
3E1F00
1FFC00
1FFC00
1FFC00
1FFC00
ENDCHAR
STARTCHAR 006B
ENCODING 107
SWIDTH 500 0
DWIDTH 29 0
BBX 23 40 2 0
BITMAP
F80000
F80000
F80000
F80000
380000
380000
380000
380000
380000
380000
380000
3803FE
3803FE
3803FE
3803FE
3803F0
3803F0
3803F0
381F00
381F00
381F00
381F00
39FC00
39FC00
39FC00
3FFF00
3F8F00
3F8F00
3F8F00
3803C0
3803C0
3803C0
3803C0
3800F0
3800F0
3800F0
FE03FE
FE03FE
FE03FE
FE03FE
ENDCHAR
STARTCHAR 006C
ENCODING 108
SWIDTH 500 0
DWIDTH 29 0
BBX 15 40 7 0
BITMAP
FF80
FF80
FF80
FF80
0380
0380
0380
0380
0380
0380
0380
0380
0380
0380
0380
0380
0380
0380
0380
0380
0380
0380
0380
0380
0380
0380
0380
0380
0380
0380
0380
0380
0380
0380
0380
0380
FFFE
FFFE
FFFE
FFFE
ENDCHAR
STARTCHAR 006D
ENCODING 109
SWIDTH 500 0
DWIDTH 29 0
BBX 25 29 2 0
BITMAP
E7E3FC00
E7E3FC00
E7E3FC00
E7E3FC00
3E1F0E00
3E1F0E00
3E1F0E00
381C0E00
381C0E00
381C0E00
381C0E00
381C0E00
381C0E00
381C0E00
381C0E00
381C0E00
381C0E00
381C0E00
381C0E00
381C0E00
381C0E00
381C0E00
381C0E00
381C0E00
381C0E00
FE7F3F80
FE7F3F80
FE7F3F80
FE7F3F80
ENDCHAR
STARTCHAR 006E
ENCODING 110
SWIDTH 500 0
DWIDTH 29 0
BBX 25 29 2 0
BITMAP
F9FFF000
F9FFF000
F9FFF000
F9FFF000
1F803E00
1F803E00
1F803E00
1E000E00
1E000E00
1E000E00
1E000E00
1E000E00
1E000E00
1E000E00
1E000E00
1E000E00
1E000E00
1E000E00
1E000E00
1E000E00
1E000E00
1E000E00
1E000E00
1E000E00
1E000E00
3F803F80
3F803F80
3F803F80
3F803F80
ENDCHAR
STARTCHAR 006F
ENCODING 111
SWIDTH 500 0
DWIDTH 29 0
BBX 21 29 4 0
BITMAP
07FF00
07FF00
07FF00
07FF00
7E03F0
7E03F0
7E03F0
E00038
E00038
E00038
E00038
E00038
E00038
E00038
E00038
E00038
E00038
E00038
E00038
E00038
E00038
E00038
7E03F0
7E03F0
7E03F0
07FF00
07FF00
07FF00
07FF00
ENDCHAR
STARTCHAR 0070
ENCODING 112
SWIDTH 500 0
DWIDTH 29 0
BBX 23 44 2 -15
BITMAP
F9FFC0
F9FFC0
F9FFC0
F9FFC0
3F80FC
3F80FC
3F80FC
38000E
38000E
38000E
38000E
38000E
38000E
38000E
38000E
38000E
38000E
38000E
38000E
38000E
38000E
38000E
3F80FC
3F80FC
3F80FC
39FFC0
39FFC0
39FFC0
39FFC0
380000
380000
380000
380000
380000
380000
380000
380000
380000
380000
380000
FE0000
FE0000
FE0000
FE0000
ENDCHAR
STARTCHAR 0071
ENCODING 113
SWIDTH 500 0
DWIDTH 29 0
BBX 23 44 4 -15
BITMAP
07FF38
07FF38
07FF38
07FF38
7E03F8
7E03F8
7E03F8
E000F8
E000F8
E000F8
E000F8
E00038
E00038
E00038
E00038
E00038
E00038
E00038
E00038
E00038
E00038
E00038
7E03F8
7E03F8
7E03F8
07FF38
07FF38
07FF38
07FF38
000038
000038
000038
000038
000038
000038
000038
000038
000038
000038
000038
0000FE
0000FE
0000FE
0000FE
ENDCHAR
STARTCHAR 0072
ENCODING 114
SWIDTH 500 0
DWIDTH 29 0
BBX 23 29 2 0
BITMAP
F9FFFC
F9FFFC
F9FFFC
F9FFFC
1F803E
1F803E
1F803E
1E0000
1E0000
1E0000
1E0000
1E0000
1E0000
1E0000
1E0000
1E0000
1E0000
1E0000
1E0000
1E0000
1E0000
1E0000
1E0000
1E0000
1E0000
FFE000
FFE000
FFE000
FFE000
ENDCHAR
STARTCHAR 0073
ENCODING 115
SWIDTH 500 0
DWIDTH 29 0
BBX 21 29 4 0
BITMAP
1FFF00
1FFF00
1FFF00
1FFF00
F803F0
F803F0
F803F0
F80000
F80000
F80000
F80000
1FFF00
1FFF00
1FFF00
1FFFF0
0003F0
0003F0
0003F0
0000F8
0000F8
0000F8
0000F8
F803F0
F803F0
F803F0
1FFF00
1FFF00
1FFF00
1FFF00
ENDCHAR
STARTCHAR 0074
ENCODING 116
SWIDTH 500 0
DWIDTH 29 0
BBX 22 40 2 0
BITMAP
01E000
01E000
01E000
01E000
01E000
01E000
01E000
01E000
01E000
01E000
01E000
FFFFF0
FFFFF0
FFFFF0
FFFFF0
01E000
01E000
01E000
01E000
01E000
01E000
01E000
01E000
01E000
01E000
01E000
01E000
01E000
01E000
01E03C
01E03C
01E03C
01E03C
01F8FC
01F8FC
01F8FC
001FC0
001FC0
001FC0
001FC0
ENDCHAR
STARTCHAR 0075
ENCODING 117
SWIDTH 500 0
DWIDTH 29 0
BBX 25 29 2 0
BITMAP
F8003E00
F8003E00
F8003E00
F8003E00
38000E00
38000E00
38000E00
38000E00
38000E00
38000E00
38000E00
38000E00
38000E00
38000E00
38000E00
38000E00
38000E00
38000E00
38003E00
38003E00
38003E00
38003E00
1E00FE00
1E00FE00
1E00FE00
07FFCF80
07FFCF80
07FFCF80
07FFCF80
ENDCHAR
STARTCHAR 0076
ENCODING 118
SWIDTH 500 0
DWIDTH 29 0
BBX 25 29 2 0
BITMAP
FE003F80
FE003F80
FE003F80
FE003F80
38000E00
38000E00
38000E00
38000E00
38000E00
38000E00
38000E00
1E003C00
1E003C00
1E003C00
1F80FC00
0780F000
0780F000
0780F000
01E3C000
01E3C000
01E3C000
01E3C000
007F0000
007F0000
007F0000
001C0000
001C0000
001C0000
001C0000
ENDCHAR
STARTCHAR 0077
ENCODING 119
SWIDTH 500 0
DWIDTH 29 0
BBX 29 29 0 0
BITMAP
FE0003F8
FE0003F8
FE0003F8
FE0003F8
380000E0
380000E0
380000E0
380000E0
380000E0
380000E0
380000E0
0E070380
0E070380
0E070380
0E070380
0E070380
0E070380
0E070380
07870F00
07870F00
07870F00
07870F00
079FCF00
079FCF00
079FCF00
01F8FC00
01F8FC00
01F8FC00
01F8FC00
ENDCHAR
STARTCHAR 0078
ENCODING 120
SWIDTH 500 0
DWIDTH 29 0
BBX 25 29 2 0
BITMAP
FF80FF80
FF80FF80
FF80FF80
FF80FF80
3E003E00
3E003E00
3E003E00
07E3F000
07E3F000
07E3F000
07E3F000
007F0000
007F0000
007F0000
01FFC000
01FFC000
01FFC000
01FFC000
07E3F000
07E3F000
07E3F000
07E3F000
3E003E00
3E003E00
3E003E00
FF80FF80
FF80FF80
FF80FF80
FF80FF80
ENDCHAR
STARTCHAR 0079
ENCODING 121
SWIDTH 500 0
DWIDTH 29 0
BBX 25 40 2 -11
BITMAP
FF80FF80
FF80FF80
FF80FF80
FF80FF80
1E003C00
1E003C00
1E003C00
07803C00
07803C00
07803C00
07803C00
01E0F000
01E0F000
01E0F000
01F8F000
0078F000
0078F000
0078F000
001FC000
001FC000
001FC000
001FC000
000FC000
000FC000
000FC000
000F0000
000F0000
000F0000
000F0000
380F0000
380F0000
380F0000
380F0000
381C0000
381C0000
381C0000
1FF80000
1FF80000
1FF80000
1FF80000
ENDCHAR
STARTCHAR 007A
ENCODING 122
SWIDTH 500 0
DWIDTH 29 0
BBX 21 29 4 0
BITMAP
FFFFF8
FFFFF8
FFFFF8
FFFFF8
E000F8
E000F8
E000F8
E003F0
E003F0
E003F0
E003F0
003F00
003F00
003F00
01FF00
01F000
01F000
01F000
1F8038
1F8038
1F8038
1F8038
F80038
F80038
F80038
FFFFF8
FFFFF8
FFFFF8
FFFFF8
ENDCHAR
STARTCHAR 007B
ENCODING 123
SWIDTH 500 0
DWIDTH 29 0
BBX 17 48 5 -4
BITMAP
00FF80
00FF80
00FF80
00FF80
03E000
03E000
03E000
03E000
03C000
03C000
03C000
03C000
03C000
03C000
03C000
03C000
03C000
03C000
03C000
0FC000
0FC000
0FC000
FF0000
FF0000
FF0000
FF0000
0FC000
0FC000
0FC000
0FC000
03C000
03C000
03C000
03C000
03C000
03C000
03C000
03C000
03C000
03C000
03E000
03E000
03E000
03E000
00FF80
00FF80
00FF80
00FF80
ENDCHAR
STARTCHAR 007C
ENCODING 124
SWIDTH 500 0
DWIDTH 29 0
BBX 3 48 13 -4
BITMAP
E0
E0
E0
E0
E0
E0
E0
E0
E0
E0
E0
E0
E0
E0
E0
E0
E0
E0
E0
E0
E0
E0
00
00
00
00
E0
E0
E0
E0
E0
E0
E0
E0
E0
E0
E0
E0
E0
E0
E0
E0
E0
E0
E0
E0
E0
E0
ENDCHAR
STARTCHAR 007D
ENCODING 125
SWIDTH 500 0
DWIDTH 29 0
BBX 17 48 7 -4
BITMAP
FF8000
FF8000
FF8000
FF8000
03E000
03E000
03E000
03E000
01E000
01E000
01E000
01E000
01E000
01E000
01E000
01E000
01E000
01E000
01E000
01F800
01F800
01F800
007F80
007F80
007F80
007F80
01F800
01F800
01F800
01F800
01E000
01E000
01E000
01E000
01E000
01E000
01E000
01E000
01E000
01E000
03E000
03E000
03E000
03E000
FF8000
FF8000
FF8000
FF8000
ENDCHAR
STARTCHAR 007E
ENCODING 126
SWIDTH 500 0
DWIDTH 29 0
BBX 25 11 2 33
BITMAP
1FE00000
1FE00000
1FE00000
1FE00000
F87F0F80
F87F0F80
F87F0F80
F87F0F80
0003FC00
0003FC00
0003FC00
ENDCHAR
STARTCHAR 007F
ENCODING 127
SWIDTH 500 0
DWIDTH 29 0
BBX 21 29 4 4
BITMAP
007000
007000
007000
007000
01FC00
01FC00
01FC00
01FC00
078F00
078F00
078F00
1E03C0
1E03C0
1E03C0
1E03C0
7800F0
7800F0
7800F0
F800F8
E00038
E00038
E00038
E00038
E00038
E00038
E00038
FFFFF8
FFFFF8
FFFFF8
ENDCHAR
STARTCHAR 00A0
ENCODING 160
SWIDTH 500 0
DWIDTH 29 0
BBX 0 0 0 0
BITMAP
ENDCHAR
STARTCHAR 00A1
ENCODING 161
SWIDTH 500 0
DWIDTH 29 0
BBX 11 40 9 0
BITMAP
0E00
0E00
0E00
0E00
0E00
0E00
0E00
0000
0000
0000
0000
0E00
0E00
0E00
0E00
0E00
0E00
0E00
0E00
0E00
0E00
0E00
3F80
3F80
3F80
FFE0
FFE0
FFE0
FFE0
FFE0
FFE0
FFE0
FFE0
3F80
3F80
3F80
0E00
0E00
0E00
0E00
ENDCHAR
STARTCHAR 00A2
ENCODING 162
SWIDTH 500 0
DWIDTH 29 0
BBX 21 51 4 -11
BITMAP
007000
007000
007000
007000
007000
007000
007000
007000
007000
007000
007000
07FF00
07FF00
07FF00
07FF00
7E03F0
7E03F0
7E03F0
E00038
E00038
E00038
E00038
E00000
E00000
E00000
E00000
E00000
E00000
E00000
E00038
E00038
E00038
E00038
7E03F0
7E03F0
7E03F0
07FF00
07FF00
07FF00
07FF00
007000
007000
007000
007000
007000
007000
007000
007000
007000
007000
007000
ENDCHAR
STARTCHAR 00A3
ENCODING 163
SWIDTH 500 0
DWIDTH 29 0
BBX 23 40 2 0
BITMAP
001FF0
001FF0
001FF0
001FF0
01F83E
01F83E
01F83E
01E000
01E000
01E000
01E000
01E000
01E000
01E000
01E000
1FFC00
1FFC00
1FFC00
01E000
01E000
01E000
01E000
01E000
01E000
01E000
1FE000
1FE000
1FE000
1FE000
E1E000
E1E000
E1E000
E1E000
E1F80E
E1F80E
E1F80E
3FFFFC
3FFFFC
3FFFFC
3FFFFC
ENDCHAR
STARTCHAR 00A5
ENCODING 165
SWIDTH 500 0
DWIDTH 29 0
BBX 25 36 2 0
BITMAP
E0000380
E0000380
E0000380
1E003C00
1E003C00
1E003C00
1E003C00
01E3C000
01E3C000
01E3C000
01E3C000
001C0000
001C0000
001C0000
1FFFFC00
1FFFFC00
1FFFFC00
1FFFFC00
001C0000
001C0000
001C0000
1FFFFC00
1FFFFC00
1FFFFC00
1FFFFC00
001C0000
001C0000
001C0000
001C0000
001C0000
001C0000
001C0000
001C0000
001C0000
001C0000
001C0000
ENDCHAR
STARTCHAR 00A7
ENCODING 167
SWIDTH 500 0
DWIDTH 29 0
BBX 20 59 5 -15
BITMAP
03FF80
03FF80
03FF80
03FF80
0F01E0
0F01E0
0F01E0
0F01E0
03C000
03C000
03C000
03E000
03E000
03E000
03E000
0FF800
0FF800
0FF800
0FF800
3C1E00
3C1E00
3C1E00
F00780
F00780
F00780
F00780
F001E0
F001E0
F001E0
FC01F0
3C0070
3C0070
3C0070
0F0070
0F0070
0F0070
0F0070
03C1E0
03C1E0
03C1E0
00FF80
00FF80
00FF80
00FF80
007E00
007E00
007E00
007E00
001E00
001E00
001E00
3C0780
3C0780
3C0780
3C0780
0FFE00
0FFE00
0FFE00
0FFE00
ENDCHAR
STARTCHAR 00AA
ENCODING 170
SWIDTH 500 0
DWIDTH 29 0
BBX 17 26 7 14
BITMAP
0FF800
0FF800
0FF800
0FF800
F01E00
F01E00
F01E00
F01E00
F01E00
F01E00
F01E00
F01E00
F01E00
F01E00
F01E00
0FFF80
0FFF80
0FFF80
000000
000000
000000
000000
FFFF80
FFFF80
FFFF80
FFFF80
ENDCHAR
STARTCHAR 00AB
ENCODING 171
SWIDTH 500 0
DWIDTH 29 0
BBX 21 18 4 11
BITMAP
01E038
01E038
01E038
01E038
1E03C0
1E03C0
1E03C0
E03C00
E03C00
E03C00
E03C00
1E03C0
1E03C0
1E03C0
1FE3F8
01E038
01E038
01E038
ENDCHAR
STARTCHAR 00AC
ENCODING 172
SWIDTH 500 0
DWIDTH 29 0
BBX 21 18 4 4
BITMAP
FFFFF8
FFFFF8
FFFFF8
FFFFF8
000038
000038
000038
000038
000038
000038
000038
000038
000038
000038
000038
000038
000038
000038
ENDCHAR
STARTCHAR 00B0
ENCODING 176
SWIDTH 500 0
DWIDTH 29 0
BBX 18 18 4 22
BITMAP
07F000
07F000
07F000
07F000
780F00
780F00
780F00
E003C0
E003C0
E003C0
E003C0
780F00
780F00
780F00
780F00
07F000
07F000
07F000
ENDCHAR
STARTCHAR 00B1
ENCODING 177
SWIDTH 500 0
DWIDTH 29 0
BBX 21 32 4 4
BITMAP
007000
007000
007000
007000
007000
007000
007000
007000
007000
007000
007000
FFFFF8
FFFFF8
FFFFF8
007000
007000
007000
007000
007000
007000
007000
007000
007000
007000
007000
000000
000000
000000
000000
FFFFF8
FFFFF8
FFFFF8
ENDCHAR
STARTCHAR 00B2
ENCODING 178
SWIDTH 500 0
DWIDTH 29 0
BBX 16 22 4 18
BITMAP
1FF0
1FF0
1FF0
1FF0
E00F
E00F
E00F
0070
0070
0070
0070
0780
0780
0780
0780
7800
7800
7800
FFFC
FFFC
FFFC
FFFC
ENDCHAR
STARTCHAR 00B5
ENCODING 181
SWIDTH 500 0
DWIDTH 29 0
BBX 21 36 4 -11
BITMAP
1E00F0
1E00F0
1E00F0
1E00F0
1E00F0
1E00F0
1E00F0
1E00F0
1E00F0
1E00F0
1E00F0
1E00F0
1E00F0
1E00F0
1E00F0
1E00F0
1E00F0
1E00F0
1F83F0
1F83F0
1F83F0
1FFFF8
1FFFF8
1FFFF8
1FFFF8
1E0000
1E0000
1E0000
1E0000
780000
780000
780000
E00000
E00000
E00000
E00000
ENDCHAR
STARTCHAR 00B6
ENCODING 182
SWIDTH 500 0
DWIDTH 29 0
BBX 25 40 2 0
BITMAP
07FFFF80
07FFFF80
07FFFF80
07FFFF80
3E0F0E00
3E0F0E00
3E0F0E00
F80F0E00
F80F0E00
F80F0E00
F80F0E00
F80F0E00
F80F0E00
F80F0E00
F80F0E00
3E0F0E00
3E0F0E00
3E0F0E00
07FF0E00
07FF0E00
07FF0E00
07FF0E00
000F0E00
000F0E00
000F0E00
000F0E00
000F0E00
000F0E00
000F0E00
000F0E00
000F0E00
000F0E00
000F0E00
000F0E00
000F0E00
000F0E00
000F0E00
000F0E00
000F0E00
000F0E00
ENDCHAR
STARTCHAR 00B7
ENCODING 183
SWIDTH 500 0
DWIDTH 29 0
BBX 7 4 11 11
BITMAP
FE
FE
FE
FE
ENDCHAR
STARTCHAR 00BA
ENCODING 186
SWIDTH 500 0
DWIDTH 29 0
BBX 17 26 7 14
BITMAP
0FF800
0FF800
0FF800
0FF800
F00780
F00780
F00780
F00780
F00780
F00780
F00780
F00780
F00780
F00780
F00780
0FF800
0FF800
0FF800
000000
000000
000000
000000
FFFF80
FFFF80
FFFF80
FFFF80
ENDCHAR
STARTCHAR 00BB
ENCODING 187
SWIDTH 500 0
DWIDTH 29 0
BBX 21 18 4 11
BITMAP
E03C00
E03C00
E03C00
E03C00
1E03C0
1E03C0
1E03C0
01E038
01E038
01E038
01E038
1E03C0
1E03C0
1E03C0
FE3FC0
E03C00
E03C00
E03C00
ENDCHAR
STARTCHAR 00BC
ENCODING 188
SWIDTH 500 0
DWIDTH 29 0
BBX 21 40 4 0
BITMAP
7E0000
7E0000
7E0000
7E0000
1E0000
1E0000
1E0000
1E0038
1E0038
1E0038
1E0038
1E03C0
1E03C0
1E03C0
1E03C0
003C00
003C00
003C00
01E0F0
01E0F0
01E0F0
01E0F0
1E03F0
1E03F0
1E03F0
FE3FF0
E03CF0
E03CF0
E03CF0
007FF8
007FF8
007FF8
007FF8
0000F0
0000F0
0000F0
0000F0
0000F0
0000F0
0000F0
ENDCHAR
STARTCHAR 00BD
ENCODING 189
SWIDTH 500 0
DWIDTH 29 0
BBX 21 40 4 0
BITMAP
7E0000
7E0000
7E0000
7E0000
1E0000
1E0000
1E0000
1E0038
1E0038
1E0038
1E0038
1E03C0
1E03C0
1E03C0
1E03C0
003C00
003C00
003C00
01E000
01E000
01E000
01E000
1E0FC0
1E0FC0
1E0FC0
FE7FF8
E07038
E07038
E07038
0000F0
0000F0
0000F0
0000F0
000F00
000F00
000F00
003FF8
003FF8
003FF8
003FF8
ENDCHAR
STARTCHAR 00BF
ENCODING 191
SWIDTH 500 0
DWIDTH 29 0
BBX 21 40 4 0
BITMAP
007000
007000
007000
007000
007000
007000
007000
000000
000000
000000
000000
007000
007000
007000
007000
007000
007000
007000
01E000
01E000
01E000
01E000
1E0000
1E0000
1E0000
FE0038
E00038
E00038
E00038
E00038
E00038
E00038
E00038
E00038
E00038
E00038
7FFFC0
7FFFC0
7FFFC0
7FFFC0
ENDCHAR
STARTCHAR 00C4
ENCODING 196
SWIDTH 500 0
DWIDTH 29 0
BBX 21 44 4 0
BITMAP
F800F8
F800F8
F800F8
F800F8
01FC00
01FC00
01FC00
01FC00
078F00
078F00
078F00
1E03C0
1E03C0
1E03C0
1E03C0
7800F0
7800F0
7800F0
7800F0
E00038
E00038
E00038
E00038
E00038
E00038
E00038
FFFFF8
FFFFF8
FFFFF8
FFFFF8
E00038
E00038
E00038
E00038
E00038
E00038
E00038
E00038
E00038
E00038
E00038
E00038
E00038
E00038
ENDCHAR
STARTCHAR 00C5
ENCODING 197
SWIDTH 500 0
DWIDTH 29 0
BBX 19 44 5 0
BITMAP
03F800
03F800
03F800
03F800
3C0780
3C0780
3C0780
3C0780
03F800
03F800
03F800
000000
000000
000000
000000
03F800
03F800
03F800
03F800
0F1E00
0F1E00
0F1E00
3C0780
3C0780
3C0780
3C0780
F001E0
F001E0
F001E0
FFFFE0
FFFFE0
FFFFE0
FFFFE0
F001E0
F001E0
F001E0
F001E0
F001E0
F001E0
F001E0
F001E0
F001E0
F001E0
F001E0
ENDCHAR
STARTCHAR 00C6
ENCODING 198
SWIDTH 500 0
DWIDTH 29 0
BBX 25 40 2 0
BITMAP
007FFF80
007FFF80
007FFF80
007FFF80
01EF0000
01EF0000
01EF0000
078F0000
078F0000
078F0000
078F0000
1E0F0000
1E0F0000
1E0F0000
1E0F0000
380FFF80
380FFF80
380FFF80
FFFF0000
FFFF0000
FFFF0000
FFFF0000
E00F0000
E00F0000
E00F0000
E00F0000
E00F0000
E00F0000
E00F0000
E00F0000
E00F0000
E00F0000
E00F0000
E00F0000
E00F0000
E00F0000
E00FFF80
E00FFF80
E00FFF80
E00FFF80
ENDCHAR
STARTCHAR 00C7
ENCODING 199
SWIDTH 500 0
DWIDTH 29 0
BBX 21 55 4 -15
BITMAP
01FFF8
01FFF8
01FFF8
01FFF8
1F80F8
1F80F8
1F80F8
780038
780038
780038
780038
E00038
E00038
E00038
E00038
E00000
E00000
E00000
E00000
E00000
E00000
E00000
E00000
E00000
E00000
E00038
E00038
E00038
E00038
780038
780038
780038
780038
1F83F0
1F83F0
1F83F0
01FFC0
01FFC0
01FFC0
01FFC0
0003C0
0003C0
0003C0
0003C0
0000F0
0000F0
0000F0
0000F0
0000F0
0000F0
0000F0
01FFC0
01FFC0
01FFC0
01FFC0
ENDCHAR
STARTCHAR 00C9
ENCODING 201
SWIDTH 500 0
DWIDTH 29 0
BBX 17 40 5 0
BITMAP
001E00
001E00
001E00
001E00
00E000
00E000
00E000
0F0000
0F0000
0F0000
0F0000
000000
000000
000000
000000
FFFF80
FFFF80
FFFF80
F00000
F00000
F00000
F00000
F00000
F00000
F00000
FFFF80
FFFF80
FFFF80
FFFF80
F00000
F00000
F00000
F00000
F00000
F00000
F00000
FFFF80
FFFF80
FFFF80
FFFF80
ENDCHAR
STARTCHAR 00D1
ENCODING 209
SWIDTH 500 0
DWIDTH 29 0
BBX 21 44 4 0
BITMAP
078000
078000
078000
078000
7870F0
7870F0
7870F0
7870F0
000F00
000F00
000F00
000000
000000
000000
000000
FE0038
FE0038
FE0038
FE0038
E78038
E78038
E78038
E1E038
E1E038
E1E038
E1E038
E07038
E07038
E07038
E07C38
E03C38
E03C38
E03C38
E00F38
E00F38
E00F38
E00F38
E003F8
E003F8
E003F8
E000F8
E000F8
E000F8
E000F8
ENDCHAR
STARTCHAR 00D6
ENCODING 214
SWIDTH 500 0
DWIDTH 29 0
BBX 21 44 4 0
BITMAP
7E03F0
7E03F0
7E03F0
7E03F0
000000
000000
000000
000000
07FF00
07FF00
07FF00
7E03F0
7E03F0
7E03F0
7E03F0
E00038
E00038
E00038
E00038
E00038
E00038
E00038
E00038
E00038
E00038
E00038
E00038
E00038
E00038
E00038
E00038
E00038
E00038
E00038
E00038
E00038
E00038
7E03F0
7E03F0
7E03F0
07FF00
07FF00
07FF00
07FF00
ENDCHAR
STARTCHAR 00DC
ENCODING 220
SWIDTH 500 0
DWIDTH 29 0
BBX 21 40 4 0
BITMAP
7E03F0
7E03F0
7E03F0
7E03F0
000000
000000
000000
E00038
E00038
E00038
E00038
E00038
E00038
E00038
E00038
E00038
E00038
E00038
E00038
E00038
E00038
E00038
E00038
E00038
E00038
E00038
E00038
E00038
E00038
E00038
E00038
E00038
E00038
7800F0
7800F0
7800F0
07FF00
07FF00
07FF00
07FF00
ENDCHAR
STARTCHAR 00DF
ENCODING 223
SWIDTH 500 0
DWIDTH 29 0
BBX 20 37 4 -4
BITMAP
7FFC00
7FFC00
7FFC00
7FFC00
E003C0
E003C0
E003C0
E003C0
E000F0
E000F0
E000F0
FFFFC0
FFFFC0
FFFFC0
FFFFC0
E000F0
E000F0
E000F0
E000F0
E000F0
E000F0
E000F0
E000F0
E000F0
E000F0
E000F0
FFFFC0
FFFFC0
FFFFC0
E00000
E00000
E00000
E00000
E00000
E00000
E00000
E00000
ENDCHAR
STARTCHAR 00E0
ENCODING 224
SWIDTH 500 0
DWIDTH 29 0
BBX 25 44 2 0
BITMAP
07800000
07800000
07800000
07800000
00780000
00780000
00780000
00780000
000F0000
000F0000
000F0000
00000000
00000000
00000000
00000000
1FFFC000
1FFFC000
1FFFC000
1FFFC000
F803F000
F803F000
F803F000
0000F000
0000F000
0000F000
0000F000
07FFF000
07FFF000
07FFF000
3FFFF000
3E00F000
3E00F000
3E00F000
E000F000
E000F000
E000F000
E000F000
F803F380
F803F380
F803F380
1FFF3F80
1FFF3F80
1FFF3F80
1FFF3F80
ENDCHAR
STARTCHAR 00E1
ENCODING 225
SWIDTH 500 0
DWIDTH 29 0
BBX 25 44 2 0
BITMAP
000F0000
000F0000
000F0000
000F0000
00780000
00780000
00780000
00780000
07800000
07800000
07800000
00000000
00000000
00000000
00000000
1FFFC000
1FFFC000
1FFFC000
1FFFC000
F803F000
F803F000
F803F000
0000F000
0000F000
0000F000
0000F000
07FFF000
07FFF000
07FFF000
3FFFF000
3E00F000
3E00F000
3E00F000
E000F000
E000F000
E000F000
E000F000
F803F380
F803F380
F803F380
1FFF3F80
1FFF3F80
1FFF3F80
1FFF3F80
ENDCHAR
STARTCHAR 00E2
ENCODING 226
SWIDTH 500 0
DWIDTH 29 0
BBX 25 44 2 0
BITMAP
00780000
00780000
00780000
00780000
078F0000
078F0000
078F0000
078F0000
3800F000
3800F000
3800F000
00000000
00000000
00000000
00000000
1FFFC000
1FFFC000
1FFFC000
1FFFC000
F803F000
F803F000
F803F000
0000F000
0000F000
0000F000
0000F000
07FFF000
07FFF000
07FFF000
3FFFF000
3E00F000
3E00F000
3E00F000
E000F000
E000F000
E000F000
E000F000
F803F380
F803F380
F803F380
1FFF3F80
1FFF3F80
1FFF3F80
1FFF3F80
ENDCHAR
STARTCHAR 00E4
ENCODING 228
SWIDTH 500 0
DWIDTH 29 0
BBX 25 36 2 0
BITMAP
3E03F000
3E03F000
3E03F000
00000000
00000000
00000000
00000000
1FFFC000
1FFFC000
1FFFC000
1FFFC000
F803F000
F803F000
F803F000
0000F000
0000F000
0000F000
0000F000
07FFF000
07FFF000
07FFF000
3FFFF000
3E00F000
3E00F000
3E00F000
E000F000
E000F000
E000F000
E000F000
F803F380
F803F380
F803F380
1FFF3F80
1FFF3F80
1FFF3F80
1FFF3F80
ENDCHAR
STARTCHAR 00E5
ENCODING 229
SWIDTH 500 0
DWIDTH 29 0
BBX 25 44 2 0
BITMAP
01FC0000
01FC0000
01FC0000
01FC0000
1E03C000
1E03C000
1E03C000
1E03C000
01FC0000
01FC0000
01FC0000
00000000
00000000
00000000
00000000
1FFFC000
1FFFC000
1FFFC000
1FFFC000
F803F000
F803F000
F803F000
0000F000
0000F000
0000F000
0000F000
07FFF000
07FFF000
07FFF000
3FFFF000
3E00F000
3E00F000
3E00F000
E000F000
E000F000
E000F000
E000F000
F803F380
F803F380
F803F380
1FFF3F80
1FFF3F80
1FFF3F80
1FFF3F80
ENDCHAR
STARTCHAR 00E6
ENCODING 230
SWIDTH 500 0
DWIDTH 29 0
BBX 25 29 2 0
BITMAP
FFE3FC00
FFE3FC00
FFE3FC00
FFE3FC00
001C0380
001C0380
001C0380
001C0380
001C0380
001C0380
001C0380
1FFFFF80
1FFFFF80
1FFFFF80
FFFFFF80
E01C0000
E01C0000
E01C0000
E01C0000
E01C0000
E01C0000
E01C0000
E01C0000
E01C0000
E01C0000
1FE3FF80
1FE3FF80
1FE3FF80
1FE3FF80
ENDCHAR
STARTCHAR 00E7
ENCODING 231
SWIDTH 500 0
DWIDTH 29 0
BBX 21 44 4 -15
BITMAP
07FF00
07FF00
07FF00
07FF00
7E03F0
7E03F0
7E03F0
E00038
E00038
E00038
E00038
E00000
E00000
E00000
E00000
E00000
E00000
E00000
E00038
E00038
E00038
E00038
7E03F0
7E03F0
7E03F0
07FF00
07FF00
07FF00
07FF00
003F00
003F00
003F00
003F00
0003C0
0003C0
0003C0
0003C0
0003C0
0003C0
0003C0
01FF00
01FF00
01FF00
01FF00
ENDCHAR
STARTCHAR 00E8
ENCODING 232
SWIDTH 500 0
DWIDTH 29 0
BBX 21 44 4 0
BITMAP
078000
078000
078000
078000
007000
007000
007000
007000
000F00
000F00
000F00
000000
000000
000000
000000
07FF00
07FF00
07FF00
07FF00
7E03F0
7E03F0
7E03F0
E00038
E00038
E00038
E00038
FFFFF8
FFFFF8
FFFFF8
FFFFF8
E00000
E00000
E00000
E00000
E00000
E00000
E00000
7E00F8
7E00F8
7E00F8
07FFC0
07FFC0
07FFC0
07FFC0
ENDCHAR
STARTCHAR 00E9
ENCODING 233
SWIDTH 500 0
DWIDTH 29 0
BBX 21 44 4 0
BITMAP
000F00
000F00
000F00
000F00
007000
007000
007000
007000
078000
078000
078000
000000
000000
000000
000000
07FF00
07FF00
07FF00
07FF00
7E03F0
7E03F0
7E03F0
E00038
E00038
E00038
E00038
FFFFF8
FFFFF8
FFFFF8
FFFFF8
E00000
E00000
E00000
E00000
E00000
E00000
E00000
7E00F8
7E00F8
7E00F8
07FFC0
07FFC0
07FFC0
07FFC0
ENDCHAR
STARTCHAR 00EA
ENCODING 234
SWIDTH 500 0
DWIDTH 29 0
BBX 21 44 4 0
BITMAP
007000
007000
007000
007000
078F00
078F00
078F00
078F00
7800F0
7800F0
7800F0
000000
000000
000000
000000
07FF00
07FF00
07FF00
07FF00
7E03F0
7E03F0
7E03F0
E00038
E00038
E00038
E00038
FFFFF8
FFFFF8
FFFFF8
FFFFF8
E00000
E00000
E00000
E00000
E00000
E00000
E00000
7E00F8
7E00F8
7E00F8
07FFC0
07FFC0
07FFC0
07FFC0
ENDCHAR
STARTCHAR 00EB
ENCODING 235
SWIDTH 500 0
DWIDTH 29 0
BBX 21 36 4 0
BITMAP
7E03F0
7E03F0
7E03F0
000000
000000
000000
000000
07FF00
07FF00
07FF00
07FF00
7E03F0
7E03F0
7E03F0
E00038
E00038
E00038
E00038
FFFFF8
FFFFF8
FFFFF8
FFFFF8
E00000
E00000
E00000
E00000
E00000
E00000
E00000
7E00F8
7E00F8
7E00F8
07FFC0
07FFC0
07FFC0
07FFC0
ENDCHAR
STARTCHAR 00EC
ENCODING 236
SWIDTH 500 0
DWIDTH 29 0
BBX 17 44 5 0
BITMAP
F00000
F00000
F00000
F00000
0F0000
0F0000
0F0000
0F0000
00E000
00E000
00E000
000000
000000
000000
000000
3FE000
3FE000
3FE000
3FE000
00E000
00E000
00E000
00E000
00E000
00E000
00E000
00E000
00E000
00E000
00E000
00E000
00E000
00E000
00E000
00E000
00E000
00E000
00E000
00E000
00E000
3FFF80
3FFF80
3FFF80
3FFF80
ENDCHAR
STARTCHAR 00ED
ENCODING 237
SWIDTH 500 0
DWIDTH 29 0
BBX 17 44 5 0
BITMAP
00E000
00E000
00E000
00E000
0F0000
0F0000
0F0000
0F0000
F00000
F00000
F00000
000000
000000
000000
000000
3FE000
3FE000
3FE000
3FE000
00E000
00E000
00E000
00E000
00E000
00E000
00E000
00E000
00E000
00E000
00E000
00E000
00E000
00E000
00E000
00E000
00E000
00E000
00E000
00E000
00E000
3FFF80
3FFF80
3FFF80
3FFF80
ENDCHAR
STARTCHAR 00EE
ENCODING 238
SWIDTH 500 0
DWIDTH 29 0
BBX 18 44 4 0
BITMAP
01E000
01E000
01E000
01E000
1E3C00
1E3C00
1E3C00
1E3C00
E003C0
E003C0
E003C0
000000
000000
000000
000000
1FF000
1FF000
1FF000
1FF000
007000
007000
007000
007000
007000
007000
007000
007000
007000
007000
007000
007000
007000
007000
007000
007000
007000
007000
007000
007000
007000
1FFFC0
1FFFC0
1FFFC0
1FFFC0
ENDCHAR
STARTCHAR 00EF
ENCODING 239
SWIDTH 500 0
DWIDTH 29 0
BBX 18 36 4 0
BITMAP
F83F00
F83F00
F83F00
000000
000000
000000
000000
1FF000
1FF000
1FF000
1FF000
007000
007000
007000
007000
007000
007000
007000
007000
007000
007000
007000
007000
007000
007000
007000
007000
007000
007000
007000
007000
007000
1FFFC0
1FFFC0
1FFFC0
1FFFC0
ENDCHAR
STARTCHAR 00F1
ENCODING 241
SWIDTH 500 0
DWIDTH 29 0
BBX 25 44 2 0
BITMAP
01E00000
01E00000
01E00000
01E00000
1E1C3C00
1E1C3C00
1E1C3C00
1E1C3C00
0003C000
0003C000
0003C000
00000000
00000000
00000000
00000000
F9FFF000
F9FFF000
F9FFF000
F9FFF000
1F803E00
1F803E00
1F803E00
1E000E00
1E000E00
1E000E00
1E000E00
1E000E00
1E000E00
1E000E00
1E000E00
1E000E00
1E000E00
1E000E00
1E000E00
1E000E00
1E000E00
1E000E00
1E000E00
1E000E00
1E000E00
3F803F80
3F803F80
3F803F80
3F803F80
ENDCHAR
STARTCHAR 00F2
ENCODING 242
SWIDTH 500 0
DWIDTH 29 0
BBX 21 44 4 0
BITMAP
078000
078000
078000
078000
007000
007000
007000
007000
000F00
000F00
000F00
000000
000000
000000
000000
07FF00
07FF00
07FF00
07FF00
7E03F0
7E03F0
7E03F0
E00038
E00038
E00038
E00038
E00038
E00038
E00038
E00038
E00038
E00038
E00038
E00038
E00038
E00038
E00038
7E03F0
7E03F0
7E03F0
07FF00
07FF00
07FF00
07FF00
ENDCHAR
STARTCHAR 00F3
ENCODING 243
SWIDTH 500 0
DWIDTH 29 0
BBX 21 44 4 0
BITMAP
000F00
000F00
000F00
000F00
007000
007000
007000
007000
078000
078000
078000
000000
000000
000000
000000
07FF00
07FF00
07FF00
07FF00
7E03F0
7E03F0
7E03F0
E00038
E00038
E00038
E00038
E00038
E00038
E00038
E00038
E00038
E00038
E00038
E00038
E00038
E00038
E00038
7E03F0
7E03F0
7E03F0
07FF00
07FF00
07FF00
07FF00
ENDCHAR
STARTCHAR 00F4
ENCODING 244
SWIDTH 500 0
DWIDTH 29 0
BBX 21 44 4 0
BITMAP
007000
007000
007000
007000
078F00
078F00
078F00
078F00
7800F0
7800F0
7800F0
000000
000000
000000
000000
07FF00
07FF00
07FF00
07FF00
7E03F0
7E03F0
7E03F0
E00038
E00038
E00038
E00038
E00038
E00038
E00038
E00038
E00038
E00038
E00038
E00038
E00038
E00038
E00038
7E03F0
7E03F0
7E03F0
07FF00
07FF00
07FF00
07FF00
ENDCHAR
STARTCHAR 00F6
ENCODING 246
SWIDTH 500 0
DWIDTH 29 0
BBX 21 36 4 0
BITMAP
7E03F0
7E03F0
7E03F0
000000
000000
000000
000000
07FF00
07FF00
07FF00
07FF00
7E03F0
7E03F0
7E03F0
E00038
E00038
E00038
E00038
E00038
E00038
E00038
E00038
E00038
E00038
E00038
E00038
E00038
E00038
E00038
7E03F0
7E03F0
7E03F0
07FF00
07FF00
07FF00
07FF00
ENDCHAR
STARTCHAR 00F7
ENCODING 247
SWIDTH 500 0
DWIDTH 29 0
BBX 21 25 4 4
BITMAP
01FC00
01FC00
01FC00
01FC00
01FC00
01FC00
01FC00
000000
000000
000000
000000
FFFFF8
FFFFF8
FFFFF8
FFFFF8
000000
000000
000000
01FC00
01FC00
01FC00
01FC00
01FC00
01FC00
01FC00
ENDCHAR
STARTCHAR 00F9
ENCODING 249
SWIDTH 500 0
DWIDTH 29 0
BBX 25 44 2 0
BITMAP
01E00000
01E00000
01E00000
01E00000
001C0000
001C0000
001C0000
001C0000
0003C000
0003C000
0003C000
00000000
00000000
00000000
00000000
F8003E00
F8003E00
F8003E00
F8003E00
38000E00
38000E00
38000E00
38000E00
38000E00
38000E00
38000E00
38000E00
38000E00
38000E00
38000E00
38000E00
38000E00
38000E00
38003E00
38003E00
38003E00
38003E00
1E00FE00
1E00FE00
1E00FE00
07FFCF80
07FFCF80
07FFCF80
07FFCF80
ENDCHAR
STARTCHAR 00FA
ENCODING 250
SWIDTH 500 0
DWIDTH 29 0
BBX 25 44 2 0
BITMAP
0003C000
0003C000
0003C000
0003C000
001C0000
001C0000
001C0000
001C0000
01E00000
01E00000
01E00000
00000000
00000000
00000000
00000000
F8003E00
F8003E00
F8003E00
F8003E00
38000E00
38000E00
38000E00
38000E00
38000E00
38000E00
38000E00
38000E00
38000E00
38000E00
38000E00
38000E00
38000E00
38000E00
38003E00
38003E00
38003E00
38003E00
1E00FE00
1E00FE00
1E00FE00
07FFCF80
07FFCF80
07FFCF80
07FFCF80
ENDCHAR
STARTCHAR 00FB
ENCODING 251
SWIDTH 500 0
DWIDTH 29 0
BBX 25 44 2 0
BITMAP
001C0000
001C0000
001C0000
001C0000
01E3C000
01E3C000
01E3C000
01E3C000
1E003C00
1E003C00
1E003C00
00000000
00000000
00000000
00000000
F8003E00
F8003E00
F8003E00
F8003E00
38000E00
38000E00
38000E00
38000E00
38000E00
38000E00
38000E00
38000E00
38000E00
38000E00
38000E00
38000E00
38000E00
38000E00
38003E00
38003E00
38003E00
38003E00
1E00FE00
1E00FE00
1E00FE00
07FFCF80
07FFCF80
07FFCF80
07FFCF80
ENDCHAR
STARTCHAR 00FC
ENCODING 252
SWIDTH 500 0
DWIDTH 29 0
BBX 25 36 2 0
BITMAP
1F83F000
1F83F000
1F83F000
00000000
00000000
00000000
00000000
F8003E00
F8003E00
F8003E00
F8003E00
38000E00
38000E00
38000E00
38000E00
38000E00
38000E00
38000E00
38000E00
38000E00
38000E00
38000E00
38000E00
38000E00
38000E00
38003E00
38003E00
38003E00
38003E00
1E00FE00
1E00FE00
1E00FE00
07FFCF80
07FFCF80
07FFCF80
07FFCF80
ENDCHAR
STARTCHAR 00FF
ENCODING 255
SWIDTH 500 0
DWIDTH 29 0
BBX 25 47 2 -11
BITMAP
1F80FC00
1F80FC00
1F80FC00
00000000
00000000
00000000
00000000
FF80FF80
FF80FF80
FF80FF80
FF80FF80
1E003C00
1E003C00
1E003C00
07803C00
07803C00
07803C00
07803C00
01E0F000
01E0F000
01E0F000
01F8F000
0078F000
0078F000
0078F000
001FC000
001FC000
001FC000
001FC000
000FC000
000FC000
000FC000
000F0000
000F0000
000F0000
000F0000
380F0000
380F0000
380F0000
380F0000
381C0000
381C0000
381C0000
1FF80000
1FF80000
1FF80000
1FF80000
ENDCHAR
STARTCHAR 0192
ENCODING 402
SWIDTH 500 0
DWIDTH 29 0
BBX 21 51 4 -11
BITMAP
003FC0
003FC0
003FC0
003FC0
0070F8
0070F8
0070F8
007000
007000
007000
007000
007000
007000
007000
007000
007000
007000
007000
007000
007000
007000
007000
1FFFC0
1FFFC0
1FFFC0
1FFFC0
007000
007000
007000
007000
007000
007000
007000
007000
007000
007000
007000
007000
007000
007000
007000
007000
007000
007000
F87000
F87000
F87000
1FE000
1FE000
1FE000
1FE000
ENDCHAR
STARTCHAR 0393
ENCODING 915
SWIDTH 500 0
DWIDTH 29 0
BBX 21 40 4 0
BITMAP
FFFFF8
FFFFF8
FFFFF8
FFFFF8
E00038
E00038
E00038
E00000
E00000
E00000
E00000
E00000
E00000
E00000
E00000
E00000
E00000
E00000
E00000
E00000
E00000
E00000
E00000
E00000
E00000
E00000
E00000
E00000
E00000
E00000
E00000
E00000
E00000
E00000
E00000
E00000
E00000
E00000
E00000
E00000
ENDCHAR
STARTCHAR 0398
ENCODING 920
SWIDTH 500 0
DWIDTH 29 0
BBX 21 40 4 0
BITMAP
01FC00
01FC00
01FC00
01FC00
1F8FC0
1F8FC0
1F8FC0
7800F0
7800F0
7800F0
7800F0
E00038
E00038
E00038
E00038
E00038
E00038
E00038
FFFFF8
FFFFF8
FFFFF8
FFFFF8
E00038
E00038
E00038
E00038
E00038
E00038
E00038
7800F0
7800F0
7800F0
7800F0
1F8FC0
1F8FC0
1F8FC0
01FC00
01FC00
01FC00
01FC00
ENDCHAR
STARTCHAR 03A3
ENCODING 931
SWIDTH 500 0
DWIDTH 29 0
BBX 21 40 4 0
BITMAP
FFFFF8
FFFFF8
FFFFF8
FFFFF8
E00038
E00038
E00038
780000
780000
780000
780000
1E0000
1E0000
1E0000
1E0000
078000
078000
078000
01E000
01E000
01E000
01E000
078000
078000
078000
1F8000
1E0000
1E0000
1E0000
780000
780000
780000
780000
E00038
E00038
E00038
FFFFF8
FFFFF8
FFFFF8
FFFFF8
ENDCHAR
STARTCHAR 03A6
ENCODING 934
SWIDTH 500 0
DWIDTH 29 0
BBX 21 40 4 0
BITMAP
FFFFF8
FFFFF8
FFFFF8
FFFFF8
007000
007000
007000
007000
007000
007000
007000
1FFFC0
1FFFC0
1FFFC0
1FFFC0
7870F0
7870F0
7870F0
E07038
E07038
E07038
E07038
7870F0
7870F0
7870F0
7FFFF0
1FFFC0
1FFFC0
1FFFC0
007000
007000
007000
007000
007000
007000
007000
FFFFF8
FFFFF8
FFFFF8
FFFFF8
ENDCHAR
STARTCHAR 03A9
ENCODING 937
SWIDTH 500 0
DWIDTH 29 0
BBX 21 40 4 0
BITMAP
07FF00
07FF00
07FF00
07FF00
7E03F0
7E03F0
7E03F0
E00038
E00038
E00038
E00038
E00038
E00038
E00038
E00038
E00038
E00038
E00038
7800F0
7800F0
7800F0
7800F0
1E03C0
1E03C0
1E03C0
1F8FC0
078F00
078F00
078F00
078F00
078F00
078F00
078F00
078F00
078F00
078F00
FF8FF8
FF8FF8
FF8FF8
FF8FF8
ENDCHAR
STARTCHAR 03B1
ENCODING 945
SWIDTH 500 0
DWIDTH 29 0
BBX 21 29 4 0
BITMAP
07FC38
07FC38
07FC38
07FC38
7E0FF0
7E0FF0
7E0FF0
E003C0
E003C0
E003C0
E003C0
E003C0
E003C0
E003C0
E003C0
E003C0
E003C0
E003C0
E003C0
E003C0
E003C0
E003C0
7E0FF0
7E0FF0
7E0FF0
07FC38
07FC38
07FC38
07FC38
ENDCHAR
STARTCHAR 03B4
ENCODING 948
SWIDTH 500 0
DWIDTH 29 0
BBX 21 40 4 0
BITMAP
01FF00
01FF00
01FF00
01FF00
0783F0
0783F0
0783F0
078000
078000
078000
078000
01E000
01E000
01E000
01E000
007C00
007C00
007C00
000FC0
000FC0
000FC0
000FC0
1FFFF0
1FFFF0
1FFFF0
FFFFF8
F800F8
F800F8
F800F8
E00038
E00038
E00038
E00038
F800F8
F800F8
F800F8
1FFFC0
1FFFC0
1FFFC0
1FFFC0
ENDCHAR
STARTCHAR 03B5
ENCODING 949
SWIDTH 500 0
DWIDTH 29 0
BBX 15 40 7 0
BITMAP
01FE
01FE
01FE
01FE
0F80
0F80
0F80
3C00
3C00
3C00
3C00
F000
F000
F000
F000
F000
F000
F000
FFFE
FFFE
FFFE
FFFE
F000
F000
F000
F000
F000
F000
F000
3C00
3C00
3C00
3C00
0F80
0F80
0F80
01FE
01FE
01FE
01FE
ENDCHAR
STARTCHAR 03C0
ENCODING 960
SWIDTH 500 0
DWIDTH 29 0
BBX 21 29 4 0
BITMAP
7FFFF8
7FFFF8
7FFFF8
7FFFF8
E1E3C0
E1E3C0
E1E3C0
01E3C0
01E3C0
01E3C0
01E3C0
01E3C0
01E3C0
01E3C0
01E3C0
01E3C0
01E3C0
01E3C0
01E3C0
01E3C0
01E3C0
01E3C0
01E3C0
01E3C0
01E3C0
01E3C0
01E3C0
01E3C0
01E3C0
ENDCHAR
STARTCHAR 03C3
ENCODING 963
SWIDTH 500 0
DWIDTH 29 0
BBX 23 29 4 0
BITMAP
07FFFE
07FFFE
07FFFE
07FFFE
7E0FC0
7E0FC0
7E0FC0
E000F0
E000F0
E000F0
E000F0
E000F0
E000F0
E000F0
E000F0
E000F0
E000F0
E000F0
E000F0
E000F0
E000F0
E000F0
7E0FC0
7E0FC0
7E0FC0
07FC00
07FC00
07FC00
07FC00
ENDCHAR
STARTCHAR 03C4
ENCODING 964
SWIDTH 500 0
DWIDTH 29 0
BBX 21 29 4 0
BITMAP
7FE3F8
7FE3F8
7FE3F8
7FE3F8
E07F00
E07F00
E07F00
003C00
003C00
003C00
003C00
003C00
003C00
003C00
003C00
003C00
003C00
003C00
003C00
003C00
003C00
003C00
003C00
003C00
003C00
000F00
000F00
000F00
000F00
ENDCHAR
STARTCHAR 03C6
ENCODING 966
SWIDTH 500 0
DWIDTH 29 0
BBX 21 36 4 0
BITMAP
0000F0
0000F0
0000F0
0003C0
0003C0
0003C0
0003C0
1FFFC0
1FFFC0
1FFFC0
1FFFC0
F83C38
F83C38
F83C38
E07038
E07038
E07038
E07038
E1E038
E1E038
E1E038
E7E0F8
E780F8
E780F8
E780F8
1FFFC0
1FFFC0
1FFFC0
1FFFC0
780000
780000
780000
E00000
E00000
E00000
E00000
ENDCHAR
STARTCHAR 2022
ENCODING 8226
SWIDTH 500 0
DWIDTH 29 0
BBX 15 15 7 7
BITMAP
3FF8
3FF8
3FF8
3FF8
FFFE
FFFE
FFFE
FFFE
FFFE
FFFE
FFFE
3FF8
3FF8
3FF8
3FF8
ENDCHAR
STARTCHAR 203C
ENCODING 8252
SWIDTH 500 0
DWIDTH 29 0
BBX 19 40 5 0
BITMAP
F001E0
F001E0
F001E0
F001E0
F001E0
F001E0
F001E0
F001E0
F001E0
F001E0
F001E0
F001E0
F001E0
F001E0
F001E0
F001E0
F001E0
F001E0
F001E0
F001E0
F001E0
F001E0
F001E0
F001E0
F001E0
F001E0
F001E0
F001E0
F001E0
000000
000000
000000
000000
F001E0
F001E0
F001E0
F001E0
F001E0
F001E0
F001E0
ENDCHAR
STARTCHAR 207F
ENCODING 8319
SWIDTH 500 0
DWIDTH 29 0
BBX 20 22 4 18
BITMAP
F9FF00
F9FF00
F9FF00
F9FF00
1F83F0
1F83F0
1F83F0
1E00F0
1E00F0
1E00F0
1E00F0
1E00F0
1E00F0
1E00F0
1E00F0
1E00F0
1E00F0
1E00F0
1E00F0
1E00F0
1E00F0
1E00F0
ENDCHAR
STARTCHAR 20A7
ENCODING 8359
SWIDTH 500 0
DWIDTH 29 0
BBX 21 40 4 0
BITMAP
FFF000
FFF000
FFF000
FFF000
E03F00
E03F00
E03F00
E00FC0
E00FC0
E00FC0
E00FC0
E03F00
E03F00
E03F00
E03F00
FFF000
FFF000
FFF000
E003C0
E003C0
E003C0
E003C0
E003C0
E003C0
E003C0
E03FF8
E03FF8
E03FF8
E03FF8
E003C0
E003C0
E003C0
E003C0
E003C0
E003C0
E003C0
E000F8
E000F8
E000F8
E000F8
ENDCHAR
STARTCHAR 2190
ENCODING 8592
SWIDTH 500 0
DWIDTH 29 0
BBX 21 26 4 7
BITMAP
003C00
003C00
003C00
003C00
01E000
01E000
01E000
01E000
1E0000
1E0000
1E0000
FFFFF8
FFFFF8
FFFFF8
FFFFF8
1E0000
1E0000
1E0000
1FE000
01E000
01E000
01E000
003C00
003C00
003C00
003C00
ENDCHAR
STARTCHAR 2191
ENCODING 8593
SWIDTH 500 0
DWIDTH 29 0
BBX 19 40 5 0
BITMAP
00E000
00E000
00E000
00E000
03F800
03F800
03F800
0FFE00
0FFE00
0FFE00
0FFE00
FFFFE0
FFFFE0
FFFFE0
FFFFE0
00E000
00E000
00E000
00E000
00E000
00E000
00E000
00E000
00E000
00E000
00E000
00E000
00E000
00E000
00E000
00E000
00E000
00E000
00E000
00E000
00E000
00E000
00E000
00E000
00E000
ENDCHAR
STARTCHAR 2192
ENCODING 8594
SWIDTH 500 0
DWIDTH 29 0
BBX 21 26 4 7
BITMAP
01E000
01E000
01E000
01E000
003C00
003C00
003C00
003C00
0003C0
0003C0
0003C0
FFFFF8
FFFFF8
FFFFF8
FFFFF8
0003C0
0003C0
0003C0
003FC0
003C00
003C00
003C00
01E000
01E000
01E000
01E000
ENDCHAR
STARTCHAR 2193
ENCODING 8595
SWIDTH 500 0
DWIDTH 29 0
BBX 19 40 5 0
BITMAP
00E000
00E000
00E000
00E000
00E000
00E000
00E000
00E000
00E000
00E000
00E000
00E000
00E000
00E000
00E000
00E000
00E000
00E000
00E000
00E000
00E000
00E000
00E000
00E000
00E000
FFFFE0
FFFFE0
FFFFE0
FFFFE0
0FFE00
0FFE00
0FFE00
0FFE00
03F800
03F800
03F800
00E000
00E000
00E000
00E000
ENDCHAR
STARTCHAR 2194
ENCODING 8596
SWIDTH 500 0
DWIDTH 29 0
BBX 25 18 2 11
BITMAP
01E3C000
01E3C000
01E3C000
01E3C000
1FE3FC00
1FE3FC00
1FE3FC00
FFFFFF80
FFFFFF80
FFFFFF80
FFFFFF80
1FE3FC00
1FE3FC00
1FE3FC00
1FE3FC00
01E3C000
01E3C000
01E3C000
ENDCHAR
STARTCHAR 2195
ENCODING 8597
SWIDTH 500 0
DWIDTH 29 0
BBX 19 40 5 0
BITMAP
00E000
00E000
00E000
00E000
03F800
03F800
03F800
0FFE00
0FFE00
0FFE00
0FFE00
FFFFE0
FFFFE0
FFFFE0
FFFFE0
00E000
00E000
00E000
00E000
00E000
00E000
00E000
00E000
00E000
00E000
FFFFE0
FFFFE0
FFFFE0
FFFFE0
0FFE00
0FFE00
0FFE00
0FFE00
03F800
03F800
03F800
00E000
00E000
00E000
00E000
ENDCHAR
STARTCHAR 21A8
ENCODING 8616
SWIDTH 500 0
DWIDTH 29 0
BBX 19 44 5 -4
BITMAP
00E000
00E000
00E000
00E000
03F800
03F800
03F800
0FFE00
0FFE00
0FFE00
0FFE00
FFFFE0
FFFFE0
FFFFE0
FFFFE0
00E000
00E000
00E000
00E000
00E000
00E000
00E000
00E000
00E000
00E000
FFFFE0
FFFFE0
FFFFE0
FFFFE0
0FFE00
0FFE00
0FFE00
0FFE00
03F800
03F800
03F800
00E000
00E000
00E000
00E000
FFFFE0
FFFFE0
FFFFE0
FFFFE0
ENDCHAR
STARTCHAR 2219
ENCODING 8729
SWIDTH 500 0
DWIDTH 29 0
BBX 7 7 11 11
BITMAP
FE
FE
FE
FE
FE
FE
FE
ENDCHAR
STARTCHAR 221A
ENCODING 8730
SWIDTH 500 0
DWIDTH 29 0
BBX 21 40 4 0
BITMAP
003FF8
003FF8
003FF8
003FF8
003C00
003C00
003C00
003C00
003C00
003C00
003C00
003C00
003C00
003C00
003C00
003C00
003C00
003C00
003C00
003C00
003C00
003C00
003C00
003C00
003C00
E03C00
E03C00
E03C00
E03C00
1E3C00
1E3C00
1E3C00
1E3C00
01FC00
01FC00
01FC00
003C00
003C00
003C00
003C00
ENDCHAR
STARTCHAR 221E
ENCODING 8734
SWIDTH 500 0
DWIDTH 29 0
BBX 25 18 2 11
BITMAP
1FE3FC00
1FE3FC00
1FE3FC00
1FE3FC00
F87F0F80
F87F0F80
F87F0F80
E01C0380
E01C0380
E01C0380
E01C0380
F87F0F80
F87F0F80
F87F0F80
FFFFFF80
1FE3FC00
1FE3FC00
1FE3FC00
ENDCHAR
STARTCHAR 221F
ENCODING 8735
SWIDTH 500 0
DWIDTH 29 0
BBX 21 18 4 11
BITMAP
E00000
E00000
E00000
E00000
E00000
E00000
E00000
E00000
E00000
E00000
E00000
E00000
E00000
E00000
FFFFF8
FFFFF8
FFFFF8
FFFFF8
ENDCHAR
STARTCHAR 2229
ENCODING 8745
SWIDTH 500 0
DWIDTH 29 0
BBX 21 33 4 0
BITMAP
07FF00
07FF00
07FF00
07FF00
7E03F0
7E03F0
7E03F0
7E03F0
E00038
E00038
E00038
E00038
E00038
E00038
E00038
E00038
E00038
E00038
E00038
E00038
E00038
E00038
E00038
E00038
E00038
E00038
E00038
E00038
E00038
E00038
E00038
E00038
E00038
ENDCHAR
STARTCHAR 2248
ENCODING 8776
SWIDTH 500 0
DWIDTH 29 0
BBX 21 25 4 4
BITMAP
1F8000
1F8000
1F8000
1F8000
E07038
E07038
E07038
000FC0
000FC0
000FC0
000FC0
000000
000000
000000
1F8000
1F8000
1F8000
1F8000
E07038
E07038
E07038
E07038
000FC0
000FC0
000FC0
ENDCHAR
STARTCHAR 2261
ENCODING 8801
SWIDTH 500 0
DWIDTH 29 0
BBX 21 32 4 4
BITMAP
FFFFF8
FFFFF8
FFFFF8
000000
000000
000000
000000
000000
000000
000000
000000
000000
000000
000000
FFFFF8
FFFFF8
FFFFF8
FFFFF8
000000
000000
000000
000000
000000
000000
000000
000000
000000
000000
000000
FFFFF8
FFFFF8
FFFFF8
ENDCHAR
STARTCHAR 2264
ENCODING 8804
SWIDTH 500 0
DWIDTH 29 0
BBX 21 40 4 0
BITMAP
0000F8
0000F8
0000F8
0000F8
003F00
003F00
003F00
01F000
01F000
01F000
01F000
1F8000
1F8000
1F8000
1F8000
F80000
F80000
F80000
1F8000
1F8000
1F8000
1F8000
01F000
01F000
01F000
01FF00
003F00
003F00
003F00
0000F8
0000F8
0000F8
0000F8
000000
000000
000000
FFFFF8
FFFFF8
FFFFF8
FFFFF8
ENDCHAR
STARTCHAR 2265
ENCODING 8805
SWIDTH 500 0
DWIDTH 29 0
BBX 21 40 4 0
BITMAP
F80000
F80000
F80000
F80000
07E000
07E000
07E000
007C00
007C00
007C00
007C00
000FC0
000FC0
000FC0
000FC0
0000F8
0000F8
0000F8
000FC0
000FC0
000FC0
000FC0
007C00
007C00
007C00
07FC00
07E000
07E000
07E000
F80000
F80000
F80000
F80000
000000
000000
000000
FFFFF8
FFFFF8
FFFFF8
FFFFF8
ENDCHAR
STARTCHAR 2302
ENCODING 8962
SWIDTH 500 0
DWIDTH 29 0
BBX 21 29 4 4
BITMAP
007000
007000
007000
007000
01FC00
01FC00
01FC00
01FC00
078F00
078F00
078F00
1E03C0
1E03C0
1E03C0
1E03C0
7800F0
7800F0
7800F0
F800F8
E00038
E00038
E00038
E00038
E00038
E00038
E00038
FFFFF8
FFFFF8
FFFFF8
ENDCHAR
STARTCHAR 2310
ENCODING 8976
SWIDTH 500 0
DWIDTH 29 0
BBX 21 18 4 4
BITMAP
FFFFF8
FFFFF8
FFFFF8
FFFFF8
E00000
E00000
E00000
E00000
E00000
E00000
E00000
E00000
E00000
E00000
E00000
E00000
E00000
E00000
ENDCHAR
STARTCHAR 2320
ENCODING 8992
SWIDTH 500 0
DWIDTH 29 0
BBX 12 51 13 -15
BITMAP
7FE0
7FE0
7FE0
E070
E070
E070
E070
E000
E000
E000
E000
E000
E000
E000
E000
E000
E000
E000
E000
E000
E000
E000
E000
E000
E000
E000
E000
E000
E000
E000
E000
E000
E000
E000
E000
E000
E000
E000
E000
E000
E000
E000
E000
E000
E000
E000
E000
E000
E000
E000
E000
ENDCHAR
STARTCHAR 2321
ENCODING 8993
SWIDTH 500 0
DWIDTH 29 0
BBX 12 51 4 -7
BITMAP
0070
0070
0070
0070
0070
0070
0070
0070
0070
0070
0070
0070
0070
0070
0070
0070
0070
0070
0070
0070
0070
0070
0070
0070
0070
0070
0070
0070
0070
0070
0070
0070
0070
0070
0070
0070
0070
0070
0070
0070
0070
0070
0070
0070
E070
E070
E070
E070
7FE0
7FE0
7FE0
ENDCHAR
STARTCHAR 2500
ENCODING 9472
SWIDTH 500 0
DWIDTH 29 0
BBX 29 4 0 11
BITMAP
FFFFFFF8
FFFFFFF8
FFFFFFF8
FFFFFFF8
ENDCHAR
STARTCHAR 2502
ENCODING 9474
SWIDTH 500 0
DWIDTH 29 0
BBX 3 59 13 -15
BITMAP
E0
E0
E0
E0
E0
E0
E0
E0
E0
E0
E0
E0
E0
E0
E0
E0
E0
E0
E0
E0
E0
E0
E0
E0
E0
E0
E0
E0
E0
E0
E0
E0
E0
E0
E0
E0
E0
E0
E0
E0
E0
E0
E0
E0
E0
E0
E0
E0
E0
E0
E0
E0
E0
E0
E0
E0
E0
E0
E0
ENDCHAR
STARTCHAR 250C
ENCODING 9484
SWIDTH 500 0
DWIDTH 29 0
BBX 16 30 13 -15
BITMAP
FFFF
FFFF
FFFF
FFFF
E000
E000
E000
E000
E000
E000
E000
E000
E000
E000
E000
E000
E000
E000
E000
E000
E000
E000
E000
E000
E000
E000
E000
E000
E000
E000
ENDCHAR
STARTCHAR 2510
ENCODING 9488
SWIDTH 500 0
DWIDTH 29 0
BBX 16 30 0 -15
BITMAP
FFFF
FFFF
FFFF
FFFF
0007
0007
0007
0007
0007
0007
0007
0007
0007
0007
0007
0007
0007
0007
0007
0007
0007
0007
0007
0007
0007
0007
0007
0007
0007
0007
ENDCHAR
STARTCHAR 2514
ENCODING 9492
SWIDTH 500 0
DWIDTH 29 0
BBX 16 33 13 11
BITMAP
E000
E000
E000
E000
E000
E000
E000
E000
E000
E000
E000
E000
E000
E000
E000
E000
E000
E000
E000
E000
E000
E000
E000
E000
E000
E000
E000
E000
E000
FFFF
FFFF
FFFF
FFFF
ENDCHAR
STARTCHAR 2518
ENCODING 9496
SWIDTH 500 0
DWIDTH 29 0
BBX 16 33 0 11
BITMAP
0007
0007
0007
0007
0007
0007
0007
0007
0007
0007
0007
0007
0007
0007
0007
0007
0007
0007
0007
0007
0007
0007
0007
0007
0007
0007
0007
0007
0007
FFFF
FFFF
FFFF
FFFF
ENDCHAR
STARTCHAR 251C
ENCODING 9500
SWIDTH 500 0
DWIDTH 29 0
BBX 16 59 13 -15
BITMAP
E000
E000
E000
E000
E000
E000
E000
E000
E000
E000
E000
E000
E000
E000
E000
E000
E000
E000
E000
E000
E000
E000
E000
E000
E000
E000
E000
E000
E000
FFFF
FFFF
FFFF
FFFF
E000
E000
E000
E000
E000
E000
E000
E000
E000
E000
E000
E000
E000
E000
E000
E000
E000
E000
E000
E000
E000
E000
E000
E000
E000
E000
ENDCHAR
STARTCHAR 2524
ENCODING 9508
SWIDTH 500 0
DWIDTH 29 0
BBX 16 59 0 -15
BITMAP
0007
0007
0007
0007
0007
0007
0007
0007
0007
0007
0007
0007
0007
0007
0007
0007
0007
0007
0007
0007
0007
0007
0007
0007
0007
0007
0007
0007
0007
FFFF
FFFF
FFFF
FFFF
0007
0007
0007
0007
0007
0007
0007
0007
0007
0007
0007
0007
0007
0007
0007
0007
0007
0007
0007
0007
0007
0007
0007
0007
0007
0007
ENDCHAR
STARTCHAR 252C
ENCODING 9516
SWIDTH 500 0
DWIDTH 29 0
BBX 29 30 0 -15
BITMAP
FFFFFFF8
FFFFFFF8
FFFFFFF8
FFFFFFF8
00070000
00070000
00070000
00070000
00070000
00070000
00070000
00070000
00070000
00070000
00070000
00070000
00070000
00070000
00070000
00070000
00070000
00070000
00070000
00070000
00070000
00070000
00070000
00070000
00070000
00070000
ENDCHAR
STARTCHAR 2534
ENCODING 9524
SWIDTH 500 0
DWIDTH 29 0
BBX 29 33 0 11
BITMAP
00070000
00070000
00070000
00070000
00070000
00070000
00070000
00070000
00070000
00070000
00070000
00070000
00070000
00070000
00070000
00070000
00070000
00070000
00070000
00070000
00070000
00070000
00070000
00070000
00070000
00070000
00070000
00070000
00070000
FFFFFFF8
FFFFFFF8
FFFFFFF8
FFFFFFF8
ENDCHAR
STARTCHAR 253C
ENCODING 9532
SWIDTH 500 0
DWIDTH 29 0
BBX 29 59 0 -15
BITMAP
00070000
00070000
00070000
00070000
00070000
00070000
00070000
00070000
00070000
00070000
00070000
00070000
00070000
00070000
00070000
00070000
00070000
00070000
00070000
00070000
00070000
00070000
00070000
00070000
00070000
00070000
00070000
00070000
00070000
FFFFFFF8
FFFFFFF8
FFFFFFF8
FFFFFFF8
00070000
00070000
00070000
00070000
00070000
00070000
00070000
00070000
00070000
00070000
00070000
00070000
00070000
00070000
00070000
00070000
00070000
00070000
00070000
00070000
00070000
00070000
00070000
00070000
00070000
00070000
ENDCHAR
STARTCHAR 2550
ENCODING 9552
SWIDTH 500 0
DWIDTH 29 0
BBX 29 11 0 11
BITMAP
FFFFFFF8
FFFFFFF8
FFFFFFF8
FFFFFFF8
00000000
00000000
00000000
FFFFFFF8
FFFFFFF8
FFFFFFF8
FFFFFFF8
ENDCHAR
STARTCHAR 2551
ENCODING 9553
SWIDTH 500 0
DWIDTH 29 0
BBX 11 59 9 -15
BITMAP
F1E0
F1E0
F1E0
F1E0
F1E0
F1E0
F1E0
F1E0
F1E0
F1E0
F1E0
F1E0
F1E0
F1E0
F1E0
F1E0
F1E0
F1E0
F1E0
F1E0
F1E0
F1E0
F1E0
F1E0
F1E0
F1E0
F1E0
F1E0
F1E0
F1E0
F1E0
F1E0
F1E0
F1E0
F1E0
F1E0
F1E0
F1E0
F1E0
F1E0
F1E0
F1E0
F1E0
F1E0
F1E0
F1E0
F1E0
F1E0
F1E0
F1E0
F1E0
F1E0
F1E0
F1E0
F1E0
F1E0
F1E0
F1E0
F1E0
ENDCHAR
STARTCHAR 2552
ENCODING 9554
SWIDTH 500 0
DWIDTH 29 0
BBX 16 37 13 -15
BITMAP
FFFF
FFFF
FFFF
FFFF
E000
E000
E000
FFFF
FFFF
FFFF
FFFF
E000
E000
E000
E000
E000
E000
E000
E000
E000
E000
E000
E000
E000
E000
E000
E000
E000
E000
E000
E000
E000
E000
E000
E000
E000
E000
ENDCHAR
STARTCHAR 2553
ENCODING 9555
SWIDTH 500 0
DWIDTH 29 0
BBX 20 30 9 -15
BITMAP
FFFFF0
FFFFF0
FFFFF0
FFFFF0
F1E000
F1E000
F1E000
F1E000
F1E000
F1E000
F1E000
F1E000
F1E000
F1E000
F1E000
F1E000
F1E000
F1E000
F1E000
F1E000
F1E000
F1E000
F1E000
F1E000
F1E000
F1E000
F1E000
F1E000
F1E000
F1E000
ENDCHAR
STARTCHAR 2554
ENCODING 9556
SWIDTH 500 0
DWIDTH 29 0
BBX 20 37 9 -15
BITMAP
FFFFF0
FFFFF0
FFFFF0
FFFFF0
F00000
F00000
F00000
F1FFF0
F1FFF0
F1FFF0
F1FFF0
F1E000
F1E000
F1E000
F1E000
F1E000
F1E000
F1E000
F1E000
F1E000
F1E000
F1E000
F1E000
F1E000
F1E000
F1E000
F1E000
F1E000
F1E000
F1E000
F1E000
F1E000
F1E000
F1E000
F1E000
F1E000
F1E000
ENDCHAR
STARTCHAR 2555
ENCODING 9557
SWIDTH 500 0
DWIDTH 29 0
BBX 16 37 0 -15
BITMAP
FFFF
FFFF
FFFF
FFFF
0007
0007
0007
FFFF
FFFF
FFFF
FFFF
0007
0007
0007
0007
0007
0007
0007
0007
0007
0007
0007
0007
0007
0007
0007
0007
0007
0007
0007
0007
0007
0007
0007
0007
0007
0007
ENDCHAR
STARTCHAR 2556
ENCODING 9558
SWIDTH 500 0
DWIDTH 29 0
BBX 20 30 0 -15
BITMAP
FFFFF0
FFFFF0
FFFFF0
FFFFF0
0078F0
0078F0
0078F0
0078F0
0078F0
0078F0
0078F0
0078F0
0078F0
0078F0
0078F0
0078F0
0078F0
0078F0
0078F0
0078F0
0078F0
0078F0
0078F0
0078F0
0078F0
0078F0
0078F0
0078F0
0078F0
0078F0
ENDCHAR
STARTCHAR 2557
ENCODING 9559
SWIDTH 500 0
DWIDTH 29 0
BBX 20 37 0 -15
BITMAP
FFFFF0
FFFFF0
FFFFF0
FFFFF0
0000F0
0000F0
0000F0
FFF8F0
FFF8F0
FFF8F0
FFF8F0
0078F0
0078F0
0078F0
0078F0
0078F0
0078F0
0078F0
0078F0
0078F0
0078F0
0078F0
0078F0
0078F0
0078F0
0078F0
0078F0
0078F0
0078F0
0078F0
0078F0
0078F0
0078F0
0078F0
0078F0
0078F0
0078F0
ENDCHAR
STARTCHAR 2558
ENCODING 9560
SWIDTH 500 0
DWIDTH 29 0
BBX 16 33 13 11
BITMAP
E000
E000
E000
E000
E000
E000
E000
E000
E000
E000
E000
E000
E000
E000
E000
E000
E000
E000
E000
E000
E000
E000
FFFF
FFFF
FFFF
FFFF
E000
E000
E000
FFFF
FFFF
FFFF
FFFF
ENDCHAR
STARTCHAR 2559
ENCODING 9561
SWIDTH 500 0
DWIDTH 29 0
BBX 20 33 9 11
BITMAP
F1E000
F1E000
F1E000
F1E000
F1E000
F1E000
F1E000
F1E000
F1E000
F1E000
F1E000
F1E000
F1E000
F1E000
F1E000
F1E000
F1E000
F1E000
F1E000
F1E000
F1E000
F1E000
F1E000
F1E000
F1E000
F1E000
F1E000
F1E000
F1E000
FFFFF0
FFFFF0
FFFFF0
FFFFF0
ENDCHAR
STARTCHAR 255A
ENCODING 9562
SWIDTH 500 0
DWIDTH 29 0
BBX 20 33 9 11
BITMAP
F1E000
F1E000
F1E000
F1E000
F1E000
F1E000
F1E000
F1E000
F1E000
F1E000
F1E000
F1E000
F1E000
F1E000
F1E000
F1E000
F1E000
F1E000
F1E000
F1E000
F1E000
F1E000
F1FFF0
F1FFF0
F1FFF0
F1FFF0
F00000
F00000
F00000
FFFFF0
FFFFF0
FFFFF0
FFFFF0
ENDCHAR
STARTCHAR 255B
ENCODING 9563
SWIDTH 500 0
DWIDTH 29 0
BBX 16 33 0 11
BITMAP
0007
0007
0007
0007
0007
0007
0007
0007
0007
0007
0007
0007
0007
0007
0007
0007
0007
0007
0007
0007
0007
0007
FFFF
FFFF
FFFF
FFFF
0007
0007
0007
FFFF
FFFF
FFFF
FFFF
ENDCHAR
STARTCHAR 255C
ENCODING 9564
SWIDTH 500 0
DWIDTH 29 0
BBX 20 33 0 11
BITMAP
0078F0
0078F0
0078F0
0078F0
0078F0
0078F0
0078F0
0078F0
0078F0
0078F0
0078F0
0078F0
0078F0
0078F0
0078F0
0078F0
0078F0
0078F0
0078F0
0078F0
0078F0
0078F0
0078F0
0078F0
0078F0
0078F0
0078F0
0078F0
0078F0
FFFFF0
FFFFF0
FFFFF0
FFFFF0
ENDCHAR
STARTCHAR 255D
ENCODING 9565
SWIDTH 500 0
DWIDTH 29 0
BBX 20 33 0 11
BITMAP
0078F0
0078F0
0078F0
0078F0
0078F0
0078F0
0078F0
0078F0
0078F0
0078F0
0078F0
0078F0
0078F0
0078F0
0078F0
0078F0
0078F0
0078F0
0078F0
0078F0
0078F0
0078F0
FFF8F0
FFF8F0
FFF8F0
FFF8F0
0000F0
0000F0
0000F0
FFFFF0
FFFFF0
FFFFF0
FFFFF0
ENDCHAR
STARTCHAR 255E
ENCODING 9566
SWIDTH 500 0
DWIDTH 29 0
BBX 16 59 13 -15
BITMAP
E000
E000
E000
E000
E000
E000
E000
E000
E000
E000
E000
E000
E000
E000
E000
E000
E000
E000
E000
E000
E000
E000
FFFF
FFFF
FFFF
FFFF
E000
E000
E000
FFFF
FFFF
FFFF
FFFF
E000
E000
E000
E000
E000
E000
E000
E000
E000
E000
E000
E000
E000
E000
E000
E000
E000
E000
E000
E000
E000
E000
E000
E000
E000
E000
ENDCHAR
STARTCHAR 255F
ENCODING 9567
SWIDTH 500 0
DWIDTH 29 0
BBX 20 59 9 -15
BITMAP
F1E000
F1E000
F1E000
F1E000
F1E000
F1E000
F1E000
F1E000
F1E000
F1E000
F1E000
F1E000
F1E000
F1E000
F1E000
F1E000
F1E000
F1E000
F1E000
F1E000
F1E000
F1E000
F1E000
F1E000
F1E000
F1E000
F1E000
F1E000
F1E000
F1FFF0
F1FFF0
F1FFF0
F1FFF0
F1E000
F1E000
F1E000
F1E000
F1E000
F1E000
F1E000
F1E000
F1E000
F1E000
F1E000
F1E000
F1E000
F1E000
F1E000
F1E000
F1E000
F1E000
F1E000
F1E000
F1E000
F1E000
F1E000
F1E000
F1E000
F1E000
ENDCHAR
STARTCHAR 2560
ENCODING 9568
SWIDTH 500 0
DWIDTH 29 0
BBX 20 59 9 -15
BITMAP
F1E000
F1E000
F1E000
F1E000
F1E000
F1E000
F1E000
F1E000
F1E000
F1E000
F1E000
F1E000
F1E000
F1E000
F1E000
F1E000
F1E000
F1E000
F1E000
F1E000
F1E000
F1E000
F1FFF0
F1FFF0
F1FFF0
F1FFF0
F00000
F00000
F00000
F1FFF0
F1FFF0
F1FFF0
F1FFF0
F1E000
F1E000
F1E000
F1E000
F1E000
F1E000
F1E000
F1E000
F1E000
F1E000
F1E000
F1E000
F1E000
F1E000
F1E000
F1E000
F1E000
F1E000
F1E000
F1E000
F1E000
F1E000
F1E000
F1E000
F1E000
F1E000
ENDCHAR
STARTCHAR 2561
ENCODING 9569
SWIDTH 500 0
DWIDTH 29 0
BBX 16 59 0 -15
BITMAP
0007
0007
0007
0007
0007
0007
0007
0007
0007
0007
0007
0007
0007
0007
0007
0007
0007
0007
0007
0007
0007
0007
FFFF
FFFF
FFFF
FFFF
0007
0007
0007
FFFF
FFFF
FFFF
FFFF
0007
0007
0007
0007
0007
0007
0007
0007
0007
0007
0007
0007
0007
0007
0007
0007
0007
0007
0007
0007
0007
0007
0007
0007
0007
0007
ENDCHAR
STARTCHAR 2562
ENCODING 9570
SWIDTH 500 0
DWIDTH 29 0
BBX 20 59 0 -15
BITMAP
0078F0
0078F0
0078F0
0078F0
0078F0
0078F0
0078F0
0078F0
0078F0
0078F0
0078F0
0078F0
0078F0
0078F0
0078F0
0078F0
0078F0
0078F0
0078F0
0078F0
0078F0
0078F0
0078F0
0078F0
0078F0
0078F0
0078F0
0078F0
0078F0
FFF8F0
FFF8F0
FFF8F0
FFF8F0
0078F0
0078F0
0078F0
0078F0
0078F0
0078F0
0078F0
0078F0
0078F0
0078F0
0078F0
0078F0
0078F0
0078F0
0078F0
0078F0
0078F0
0078F0
0078F0
0078F0
0078F0
0078F0
0078F0
0078F0
0078F0
0078F0
ENDCHAR
STARTCHAR 2563
ENCODING 9571
SWIDTH 500 0
DWIDTH 29 0
BBX 20 59 0 -15
BITMAP
0078F0
0078F0
0078F0
0078F0
0078F0
0078F0
0078F0
0078F0
0078F0
0078F0
0078F0
0078F0
0078F0
0078F0
0078F0
0078F0
0078F0
0078F0
0078F0
0078F0
0078F0
0078F0
FFF8F0
FFF8F0
FFF8F0
FFF8F0
0000F0
0000F0
0000F0
FFF8F0
FFF8F0
FFF8F0
FFF8F0
0078F0
0078F0
0078F0
0078F0
0078F0
0078F0
0078F0
0078F0
0078F0
0078F0
0078F0
0078F0
0078F0
0078F0
0078F0
0078F0
0078F0
0078F0
0078F0
0078F0
0078F0
0078F0
0078F0
0078F0
0078F0
0078F0
ENDCHAR
STARTCHAR 2564
ENCODING 9572
SWIDTH 500 0
DWIDTH 29 0
BBX 29 37 0 -15
BITMAP
FFFFFFF8
FFFFFFF8
FFFFFFF8
FFFFFFF8
00000000
00000000
00000000
FFFFFFF8
FFFFFFF8
FFFFFFF8
FFFFFFF8
00070000
00070000
00070000
00070000
00070000
00070000
00070000
00070000
00070000
00070000
00070000
00070000
00070000
00070000
00070000
00070000
00070000
00070000
00070000
00070000
00070000
00070000
00070000
00070000
00070000
00070000
ENDCHAR
STARTCHAR 2565
ENCODING 9573
SWIDTH 500 0
DWIDTH 29 0
BBX 29 30 0 -15
BITMAP
FFFFFFF8
FFFFFFF8
FFFFFFF8
FFFFFFF8
0078F000
0078F000
0078F000
0078F000
0078F000
0078F000
0078F000
0078F000
0078F000
0078F000
0078F000
0078F000
0078F000
0078F000
0078F000
0078F000
0078F000
0078F000
0078F000
0078F000
0078F000
0078F000
0078F000
0078F000
0078F000
0078F000
ENDCHAR
STARTCHAR 2566
ENCODING 9574
SWIDTH 500 0
DWIDTH 29 0
BBX 29 37 0 -15
BITMAP
FFFFFFF8
FFFFFFF8
FFFFFFF8
FFFFFFF8
00000000
00000000
00000000
FFF8FFF8
FFF8FFF8
FFF8FFF8
FFF8FFF8
0078F000
0078F000
0078F000
0078F000
0078F000
0078F000
0078F000
0078F000
0078F000
0078F000
0078F000
0078F000
0078F000
0078F000
0078F000
0078F000
0078F000
0078F000
0078F000
0078F000
0078F000
0078F000
0078F000
0078F000
0078F000
0078F000
ENDCHAR
STARTCHAR 2567
ENCODING 9575
SWIDTH 500 0
DWIDTH 29 0
BBX 29 33 0 11
BITMAP
00070000
00070000
00070000
00070000
00070000
00070000
00070000
00070000
00070000
00070000
00070000
00070000
00070000
00070000
00070000
00070000
00070000
00070000
00070000
00070000
00070000
00070000
FFFFFFF8
FFFFFFF8
FFFFFFF8
FFFFFFF8
00000000
00000000
00000000
FFFFFFF8
FFFFFFF8
FFFFFFF8
FFFFFFF8
ENDCHAR
STARTCHAR 2568
ENCODING 9576
SWIDTH 500 0
DWIDTH 29 0
BBX 29 33 0 11
BITMAP
0078F000
0078F000
0078F000
0078F000
0078F000
0078F000
0078F000
0078F000
0078F000
0078F000
0078F000
0078F000
0078F000
0078F000
0078F000
0078F000
0078F000
0078F000
0078F000
0078F000
0078F000
0078F000
0078F000
0078F000
0078F000
0078F000
0078F000
0078F000
0078F000
FFFFFFF8
FFFFFFF8
FFFFFFF8
FFFFFFF8
ENDCHAR
STARTCHAR 2569
ENCODING 9577
SWIDTH 500 0
DWIDTH 29 0
BBX 29 33 0 11
BITMAP
0078F000
0078F000
0078F000
0078F000
0078F000
0078F000
0078F000
0078F000
0078F000
0078F000
0078F000
0078F000
0078F000
0078F000
0078F000
0078F000
0078F000
0078F000
0078F000
0078F000
0078F000
0078F000
FFF8FFF8
FFF8FFF8
FFF8FFF8
FFF8FFF8
00000000
00000000
00000000
FFFFFFF8
FFFFFFF8
FFFFFFF8
FFFFFFF8
ENDCHAR
STARTCHAR 256A
ENCODING 9578
SWIDTH 500 0
DWIDTH 29 0
BBX 29 59 0 -15
BITMAP
00070000
00070000
00070000
00070000
00070000
00070000
00070000
00070000
00070000
00070000
00070000
00070000
00070000
00070000
00070000
00070000
00070000
00070000
00070000
00070000
00070000
00070000
FFFFFFF8
FFFFFFF8
FFFFFFF8
FFFFFFF8
00070000
00070000
00070000
FFFFFFF8
FFFFFFF8
FFFFFFF8
FFFFFFF8
00070000
00070000
00070000
00070000
00070000
00070000
00070000
00070000
00070000
00070000
00070000
00070000
00070000
00070000
00070000
00070000
00070000
00070000
00070000
00070000
00070000
00070000
00070000
00070000
00070000
00070000
ENDCHAR
STARTCHAR 256B
ENCODING 9579
SWIDTH 500 0
DWIDTH 29 0
BBX 29 59 0 -15
BITMAP
0078F000
0078F000
0078F000
0078F000
0078F000
0078F000
0078F000
0078F000
0078F000
0078F000
0078F000
0078F000
0078F000
0078F000
0078F000
0078F000
0078F000
0078F000
0078F000
0078F000
0078F000
0078F000
0078F000
0078F000
0078F000
0078F000
0078F000
0078F000
0078F000
FFFFFFF8
FFFFFFF8
FFFFFFF8
FFFFFFF8
0078F000
0078F000
0078F000
0078F000
0078F000
0078F000
0078F000
0078F000
0078F000
0078F000
0078F000
0078F000
0078F000
0078F000
0078F000
0078F000
0078F000
0078F000
0078F000
0078F000
0078F000
0078F000
0078F000
0078F000
0078F000
0078F000
ENDCHAR
STARTCHAR 256C
ENCODING 9580
SWIDTH 500 0
DWIDTH 29 0
BBX 29 59 0 -15
BITMAP
0078F000
0078F000
0078F000
0078F000
0078F000
0078F000
0078F000
0078F000
0078F000
0078F000
0078F000
0078F000
0078F000
0078F000
0078F000
0078F000
0078F000
0078F000
0078F000
0078F000
0078F000
0078F000
FFF8FFF8
FFF8FFF8
FFF8FFF8
FFF8FFF8
00000000
00000000
00000000
FFF8FFF8
FFF8FFF8
FFF8FFF8
FFF8FFF8
0078F000
0078F000
0078F000
0078F000
0078F000
0078F000
0078F000
0078F000
0078F000
0078F000
0078F000
0078F000
0078F000
0078F000
0078F000
0078F000
0078F000
0078F000
0078F000
0078F000
0078F000
0078F000
0078F000
0078F000
0078F000
0078F000
ENDCHAR
STARTCHAR 2580
ENCODING 9600
SWIDTH 500 0
DWIDTH 29 0
BBX 29 30 0 14
BITMAP
FFFFFFF8
FFFFFFF8
FFFFFFF8
FFFFFFF8
FFFFFFF8
FFFFFFF8
FFFFFFF8
FFFFFFF8
FFFFFFF8
FFFFFFF8
FFFFFFF8
FFFFFFF8
FFFFFFF8
FFFFFFF8
FFFFFFF8
FFFFFFF8
FFFFFFF8
FFFFFFF8
FFFFFFF8
FFFFFFF8
FFFFFFF8
FFFFFFF8
FFFFFFF8
FFFFFFF8
FFFFFFF8
FFFFFFF8
FFFFFFF8
FFFFFFF8
FFFFFFF8
FFFFFFF8
ENDCHAR
STARTCHAR 2584
ENCODING 9604
SWIDTH 500 0
DWIDTH 29 0
BBX 29 30 0 -15
BITMAP
FFFFFFF8
FFFFFFF8
FFFFFFF8
FFFFFFF8
FFFFFFF8
FFFFFFF8
FFFFFFF8
FFFFFFF8
FFFFFFF8
FFFFFFF8
FFFFFFF8
FFFFFFF8
FFFFFFF8
FFFFFFF8
FFFFFFF8
FFFFFFF8
FFFFFFF8
FFFFFFF8
FFFFFFF8
FFFFFFF8
FFFFFFF8
FFFFFFF8
FFFFFFF8
FFFFFFF8
FFFFFFF8
FFFFFFF8
FFFFFFF8
FFFFFFF8
FFFFFFF8
FFFFFFF8
ENDCHAR
STARTCHAR 2588
ENCODING 9608
SWIDTH 500 0
DWIDTH 29 0
BBX 29 59 0 -15
BITMAP
FFFFFFF8
FFFFFFF8
FFFFFFF8
FFFFFFF8
FFFFFFF8
FFFFFFF8
FFFFFFF8
FFFFFFF8
FFFFFFF8
FFFFFFF8
FFFFFFF8
FFFFFFF8
FFFFFFF8
FFFFFFF8
FFFFFFF8
FFFFFFF8
FFFFFFF8
FFFFFFF8
FFFFFFF8
FFFFFFF8
FFFFFFF8
FFFFFFF8
FFFFFFF8
FFFFFFF8
FFFFFFF8
FFFFFFF8
FFFFFFF8
FFFFFFF8
FFFFFFF8
FFFFFFF8
FFFFFFF8
FFFFFFF8
FFFFFFF8
FFFFFFF8
FFFFFFF8
FFFFFFF8
FFFFFFF8
FFFFFFF8
FFFFFFF8
FFFFFFF8
FFFFFFF8
FFFFFFF8
FFFFFFF8
FFFFFFF8
FFFFFFF8
FFFFFFF8
FFFFFFF8
FFFFFFF8
FFFFFFF8
FFFFFFF8
FFFFFFF8
FFFFFFF8
FFFFFFF8
FFFFFFF8
FFFFFFF8
FFFFFFF8
FFFFFFF8
FFFFFFF8
FFFFFFF8
ENDCHAR
STARTCHAR 258C
ENCODING 9612
SWIDTH 500 0
DWIDTH 29 0
BBX 15 59 0 -15
BITMAP
FFFE
FFFE
FFFE
FFFE
FFFE
FFFE
FFFE
FFFE
FFFE
FFFE
FFFE
FFFE
FFFE
FFFE
FFFE
FFFE
FFFE
FFFE
FFFE
FFFE
FFFE
FFFE
FFFE
FFFE
FFFE
FFFE
FFFE
FFFE
FFFE
FFFE
FFFE
FFFE
FFFE
FFFE
FFFE
FFFE
FFFE
FFFE
FFFE
FFFE
FFFE
FFFE
FFFE
FFFE
FFFE
FFFE
FFFE
FFFE
FFFE
FFFE
FFFE
FFFE
FFFE
FFFE
FFFE
FFFE
FFFE
FFFE
FFFE
ENDCHAR
STARTCHAR 2590
ENCODING 9616
SWIDTH 500 0
DWIDTH 29 0
BBX 15 59 14 -15
BITMAP
FFFE
FFFE
FFFE
FFFE
FFFE
FFFE
FFFE
FFFE
FFFE
FFFE
FFFE
FFFE
FFFE
FFFE
FFFE
FFFE
FFFE
FFFE
FFFE
FFFE
FFFE
FFFE
FFFE
FFFE
FFFE
FFFE
FFFE
FFFE
FFFE
FFFE
FFFE
FFFE
FFFE
FFFE
FFFE
FFFE
FFFE
FFFE
FFFE
FFFE
FFFE
FFFE
FFFE
FFFE
FFFE
FFFE
FFFE
FFFE
FFFE
FFFE
FFFE
FFFE
FFFE
FFFE
FFFE
FFFE
FFFE
FFFE
FFFE
ENDCHAR
STARTCHAR 2591
ENCODING 9617
SWIDTH 500 0
DWIDTH 29 0
BBX 25 59 2 -15
BITMAP
01E00380
01E00380
01E00380
01E00380
E003C000
E003C000
E003C000
E003C000
01E00380
01E00380
01E00380
E003C000
E003C000
E003C000
E003C000
01E00380
01E00380
01E00380
01E00380
E003C000
E003C000
E003C000
01E00380
01E00380
01E00380
01E00380
E003C000
E003C000
E003C000
E1E3C380
01E00380
01E00380
01E00380
E003C000
E003C000
E003C000
E003C000
01E00380
01E00380
01E00380
E003C000
E003C000
E003C000
E003C000
01E00380
01E00380
01E00380
01E00380
E003C000
E003C000
E003C000
01E00380
01E00380
01E00380
01E00380
E003C000
E003C000
E003C000
E003C000
ENDCHAR
STARTCHAR 2592
ENCODING 9618
SWIDTH 500 0
DWIDTH 29 0
BBX 29 59 0 -15
BITMAP
0E1E3C78
0E1E3C78
0E1E3C78
0E1E3C78
F1E3C380
F1E3C380
F1E3C380
F1E3C380
0E1E3C78
0E1E3C78
0E1E3C78
F1E3C380
F1E3C380
F1E3C380
F1E3C380
0E1E3C78
0E1E3C78
0E1E3C78
0E1E3C78
F1E3C380
F1E3C380
F1E3C380
0E1E3C78
0E1E3C78
0E1E3C78
0E1E3C78
F1E3C380
F1E3C380
F1E3C380
FFFFFFF8
0E1E3C78
0E1E3C78
0E1E3C78
F1E3C380
F1E3C380
F1E3C380
F1E3C380
0E1E3C78
0E1E3C78
0E1E3C78
F1E3C380
F1E3C380
F1E3C380
F1E3C380
0E1E3C78
0E1E3C78
0E1E3C78
0E1E3C78
F1E3C380
F1E3C380
F1E3C380
0E1E3C78
0E1E3C78
0E1E3C78
0E1E3C78
F1E3C380
F1E3C380
F1E3C380
F1E3C380
ENDCHAR
STARTCHAR 2593
ENCODING 9619
SWIDTH 500 0
DWIDTH 29 0
BBX 29 59 0 -15
BITMAP
F87E3F00
F87E3F00
F87E3F00
F87E3F00
07E3F0F8
07E3F0F8
07E3F0F8
07E3F0F8
F87E3F00
F87E3F00
F87E3F00
07E3F0F8
07E3F0F8
07E3F0F8
07E3F0F8
F87E3F00
F87E3F00
F87E3F00
F87E3F00
07E3F0F8
07E3F0F8
07E3F0F8
F87E3F00
F87E3F00
F87E3F00
F87E3F00
07E3F0F8
07E3F0F8
07E3F0F8
FFFFFFF8
F87E3F00
F87E3F00
F87E3F00
07E3F0F8
07E3F0F8
07E3F0F8
07E3F0F8
F87E3F00
F87E3F00
F87E3F00
07E3F0F8
07E3F0F8
07E3F0F8
07E3F0F8
F87E3F00
F87E3F00
F87E3F00
F87E3F00
07E3F0F8
07E3F0F8
07E3F0F8
F87E3F00
F87E3F00
F87E3F00
F87E3F00
07E3F0F8
07E3F0F8
07E3F0F8
07E3F0F8
ENDCHAR
STARTCHAR 25A0
ENCODING 9632
SWIDTH 500 0
DWIDTH 29 0
BBX 15 25 7 4
BITMAP
FFFE
FFFE
FFFE
FFFE
FFFE
FFFE
FFFE
FFFE
FFFE
FFFE
FFFE
FFFE
FFFE
FFFE
FFFE
FFFE
FFFE
FFFE
FFFE
FFFE
FFFE
FFFE
FFFE
FFFE
FFFE
ENDCHAR
STARTCHAR 25AC
ENCODING 9644
SWIDTH 500 0
DWIDTH 29 0
BBX 21 15 4 0
BITMAP
FFFFF8
FFFFF8
FFFFF8
FFFFF8
FFFFF8
FFFFF8
FFFFF8
FFFFF8
FFFFF8
FFFFF8
FFFFF8
FFFFF8
FFFFF8
FFFFF8
FFFFF8
ENDCHAR
STARTCHAR 25B2
ENCODING 9650
SWIDTH 500 0
DWIDTH 29 0
BBX 25 26 2 7
BITMAP
001C0000
001C0000
001C0000
001C0000
007F0000
007F0000
007F0000
007F0000
01FFC000
01FFC000
01FFC000
07FFF000
07FFF000
07FFF000
07FFF000
1FFFFC00
1FFFFC00
1FFFFC00
3FFFFE00
3FFFFE00
3FFFFE00
3FFFFE00
FFFFFF80
FFFFFF80
FFFFFF80
FFFFFF80
ENDCHAR
STARTCHAR 25BA
ENCODING 9658
SWIDTH 500 0
DWIDTH 29 0
BBX 21 40 4 0
BITMAP
E00000
E00000
E00000
E00000
FE0000
FE0000
FE0000
FFE000
FFE000
FFE000
FFE000
FFFC00
FFFC00
FFFC00
FFFC00
FFFFC0
FFFFC0
FFFFC0
FFFFF8
FFFFF8
FFFFF8
FFFFF8
FFFFC0
FFFFC0
FFFFC0
FFFFC0
FFFC00
FFFC00
FFFC00
FFE000
FFE000
FFE000
FFE000
FE0000
FE0000
FE0000
E00000
E00000
E00000
E00000
ENDCHAR
STARTCHAR 25BC
ENCODING 9660
SWIDTH 500 0
DWIDTH 29 0
BBX 25 26 2 7
BITMAP
FFFFFF80
FFFFFF80
FFFFFF80
FFFFFF80
3FFFFE00
3FFFFE00
3FFFFE00
3FFFFE00
1FFFFC00
1FFFFC00
1FFFFC00
07FFF000
07FFF000
07FFF000
07FFF000
01FFC000
01FFC000
01FFC000
01FFC000
007F0000
007F0000
007F0000
001C0000
001C0000
001C0000
001C0000
ENDCHAR
STARTCHAR 25C4
ENCODING 9668
SWIDTH 500 0
DWIDTH 29 0
BBX 21 40 4 0
BITMAP
000038
000038
000038
000038
0003F8
0003F8
0003F8
003FF8
003FF8
003FF8
003FF8
01FFF8
01FFF8
01FFF8
01FFF8
1FFFF8
1FFFF8
1FFFF8
FFFFF8
FFFFF8
FFFFF8
FFFFF8
1FFFF8
1FFFF8
1FFFF8
1FFFF8
01FFF8
01FFF8
01FFF8
003FF8
003FF8
003FF8
003FF8
0003F8
0003F8
0003F8
000038
000038
000038
000038
ENDCHAR
STARTCHAR 25CB
ENCODING 9675
SWIDTH 500 0
DWIDTH 29 0
BBX 21 21 4 4
BITMAP
07FF00
07FF00
07FF00
7E03F0
7E03F0
7E03F0
7E03F0
E00038
E00038
E00038
E00038
E00038
E00038
E00038
7E03F0
7E03F0
7E03F0
7E03F0
07FF00
07FF00
07FF00
ENDCHAR
STARTCHAR 25D8
ENCODING 9688
SWIDTH 500 0
DWIDTH 29 0
BBX 29 59 0 -15
BITMAP
FFFFFFF8
FFFFFFF8
FFFFFFF8
FFFFFFF8
FFFFFFF8
FFFFFFF8
FFFFFFF8
FFFFFFF8
FFFFFFF8
FFFFFFF8
FFFFFFF8
FFFFFFF8
FFFFFFF8
FFFFFFF8
FFFFFFF8
FFFFFFF8
FFFFFFF8
FFFFFFF8
FFFFFFF8
FFFFFFF8
FFFFFFF8
FFFFFFF8
FF800FF8
FF800FF8
FF800FF8
FF800FF8
FE0003F8
FE0003F8
FE0003F8
FE0003F8
FE0003F8
FE0003F8
FE0003F8
FF800FF8
FF800FF8
FF800FF8
FF800FF8
FFFFFFF8
FFFFFFF8
FFFFFFF8
FFFFFFF8
FFFFFFF8
FFFFFFF8
FFFFFFF8
FFFFFFF8
FFFFFFF8
FFFFFFF8
FFFFFFF8
FFFFFFF8
FFFFFFF8
FFFFFFF8
FFFFFFF8
FFFFFFF8
FFFFFFF8
FFFFFFF8
FFFFFFF8
FFFFFFF8
FFFFFFF8
FFFFFFF8
ENDCHAR
STARTCHAR 25D9
ENCODING 9689
SWIDTH 500 0
DWIDTH 29 0
BBX 29 59 0 -15
BITMAP
FFFFFFF8
FFFFFFF8
FFFFFFF8
FFFFFFF8
FFFFFFF8
FFFFFFF8
FFFFFFF8
FFFFFFF8
FFFFFFF8
FFFFFFF8
FFFFFFF8
FFFFFFF8
FFFFFFF8
FFFFFFF8
FFFFFFF8
FFFFFFF8
FFFFFFF8
FFFFFFF8
FFFFFFF8
FF800FF8
FF800FF8
FF800FF8
F87FF0F8
F87FF0F8
F87FF0F8
F87FF0F8
F1FFFC78
F1FFFC78
F1FFFC78
F1FFFC78
F1FFFC78
F1FFFC78
F1FFFC78
F87FF0F8
F87FF0F8
F87FF0F8
F87FF0F8
FF800FF8
FF800FF8
FF800FF8
FFFFFFF8
FFFFFFF8
FFFFFFF8
FFFFFFF8
FFFFFFF8
FFFFFFF8
FFFFFFF8
FFFFFFF8
FFFFFFF8
FFFFFFF8
FFFFFFF8
FFFFFFF8
FFFFFFF8
FFFFFFF8
FFFFFFF8
FFFFFFF8
FFFFFFF8
FFFFFFF8
FFFFFFF8
ENDCHAR
STARTCHAR 263A
ENCODING 9786
SWIDTH 500 0
DWIDTH 29 0
BBX 21 40 4 0
BITMAP
7FFFF0
7FFFF0
7FFFF0
7FFFF0
F800F8
F800F8
F800F8
E00038
E00038
E00038
E00038
E78F38
E78F38
E78F38
E78F38
E00038
E00038
E00038
E00038
E00038
E00038
E00038
E00038
E00038
E00038
E7FF38
E7FF38
E7FF38
E7FF38
E07038
E07038
E07038
E07038
F800F8
F800F8
F800F8
7FFFF0
7FFFF0
7FFFF0
7FFFF0
ENDCHAR
STARTCHAR 263B
ENCODING 9787
SWIDTH 500 0
DWIDTH 29 0
BBX 21 40 4 0
BITMAP
1FFFC0
1FFFC0
1FFFC0
1FFFC0
FFFFF8
FFFFF8
FFFFF8
FFFFF8
FFFFF8
FFFFF8
FFFFF8
F870F8
F870F8
F870F8
F870F8
FFFFF8
FFFFF8
FFFFF8
FFFFF8
FFFFF8
FFFFF8
FFFFF8
FFFFF8
FFFFF8
FFFFF8
FFFFF8
F800F8
F800F8
F800F8
FF8FF8
FF8FF8
FF8FF8
FF8FF8
FFFFF8
FFFFF8
FFFFF8
1FFFC0
1FFFC0
1FFFC0
1FFFC0
ENDCHAR
STARTCHAR 263C
ENCODING 9788
SWIDTH 500 0
DWIDTH 29 0
BBX 21 40 4 0
BITMAP
007000
007000
007000
007000
007000
007000
007000
007000
007000
007000
007000
F870F8
F870F8
F870F8
F870F8
01FC00
01FC00
01FC00
FF8FF8
FF8FF8
FF8FF8
FF8FF8
01FC00
01FC00
01FC00
F9FCF8
F870F8
F870F8
F870F8
007000
007000
007000
007000
007000
007000
007000
007000
007000
007000
007000
ENDCHAR
STARTCHAR 2640
ENCODING 9792
SWIDTH 500 0
DWIDTH 29 0
BBX 21 40 4 0
BITMAP
07FF00
07FF00
07FF00
07FF00
7E03F0
7E03F0
7E03F0
E00038
E00038
E00038
E00038
E00038
E00038
E00038
E00038
7E03F0
7E03F0
7E03F0
07FF00
07FF00
07FF00
07FF00
007000
007000
007000
007000
007000
007000
007000
1FFFC0
1FFFC0
1FFFC0
1FFFC0
007000
007000
007000
007000
007000
007000
007000
ENDCHAR
STARTCHAR 2642
ENCODING 9794
SWIDTH 500 0
DWIDTH 29 0
BBX 20 40 4 0
BITMAP
01FFC0
01FFC0
01FFC0
01FFC0
003CF0
003CF0
003CF0
007000
007000
007000
007000
01E000
01E000
01E000
01E000
078000
078000
078000
1FFC00
1FFC00
1FFC00
1FFC00
7E0FC0
7E0FC0
7E0FC0
FE0FF0
E000F0
E000F0
E000F0
E000F0
E000F0
E000F0
E000F0
7E0FC0
7E0FC0
7E0FC0
07FC00
07FC00
07FC00
07FC00
ENDCHAR
STARTCHAR 2660
ENCODING 9824
SWIDTH 500 0
DWIDTH 29 0
BBX 21 40 4 0
BITMAP
007000
007000
007000
007000
01FC00
01FC00
01FC00
07FF00
07FF00
07FF00
07FF00
1FFFC0
1FFFC0
1FFFC0
1FFFC0
7FFFF0
7FFFF0
7FFFF0
FFFFF8
FFFFF8
FFFFF8
FFFFF8
FFFFF8
FFFFF8
FFFFF8
FFFFF8
7FFFF0
7FFFF0
7FFFF0
007000
007000
007000
007000
007000
007000
007000
07FF00
07FF00
07FF00
07FF00
ENDCHAR
STARTCHAR 2663
ENCODING 9827
SWIDTH 500 0
DWIDTH 29 0
BBX 25 40 2 0
BITMAP
007F0000
007F0000
007F0000
007F0000
01FFC000
01FFC000
01FFC000
01FFC000
01FFC000
01FFC000
01FFC000
007F0000
007F0000
007F0000
007F0000
3E1C3E00
3E1C3E00
3E1C3E00
FFE3FF80
FFE3FF80
FFE3FF80
FFE3FF80
FFE3FF80
FFE3FF80
FFE3FF80
FFFFFF80
3E1C3E00
3E1C3E00
3E1C3E00
007F0000
007F0000
007F0000
007F0000
007F0000
007F0000
007F0000
01FFC000
01FFC000
01FFC000
01FFC000
ENDCHAR
STARTCHAR 2665
ENCODING 9829
SWIDTH 500 0
DWIDTH 29 0
BBX 21 36 4 0
BITMAP
1F8FC0
1F8FC0
1F8FC0
7FFFF0
7FFFF0
7FFFF0
7FFFF0
FFFFF8
FFFFF8
FFFFF8
FFFFF8
FFFFF8
FFFFF8
FFFFF8
FFFFF8
FFFFF8
FFFFF8
FFFFF8
7FFFF0
7FFFF0
7FFFF0
7FFFF0
1FFFC0
1FFFC0
1FFFC0
07FF00
07FF00
07FF00
07FF00
01FC00
01FC00
01FC00
007000
007000
007000
007000
ENDCHAR
STARTCHAR 2666
ENCODING 9830
SWIDTH 500 0
DWIDTH 29 0
BBX 21 32 4 4
BITMAP
007000
007000
007000
01FC00
01FC00
01FC00
01FC00
1FFFC0
1FFFC0
1FFFC0
1FFFC0
7FFFF0
7FFFF0
7FFFF0
FFFFF8
FFFFF8
FFFFF8
FFFFF8
7FFFF0
7FFFF0
7FFFF0
7FFFF0
1FFFC0
1FFFC0
1FFFC0
01FC00
01FC00
01FC00
01FC00
007000
007000
007000
ENDCHAR
STARTCHAR 266A
ENCODING 9834
SWIDTH 500 0
DWIDTH 29 0
BBX 21 40 4 0
BITMAP
007FC0
007FC0
007FC0
007FC0
0070F0
0070F0
0070F0
007038
007038
007038
007038
007038
007038
007038
007038
0070F0
0070F0
0070F0
007000
007000
007000
007000
007000
007000
007000
7FF000
7FF000
7FF000
7FF000
FFF000
FFF000
FFF000
FFF000
FFF000
FFF000
FFF000
7FE000
7FE000
7FE000
7FE000
ENDCHAR
STARTCHAR 266B
ENCODING 9835
SWIDTH 500 0
DWIDTH 29 0
BBX 21 40 4 0
BITMAP
07FC00
07FC00
07FC00
07FC00
078FC0
078FC0
078FC0
0780F0
0780F0
0780F0
0780F0
078038
078038
078038
078038
078038
078038
078038
7F8038
7F8038
7F8038
7F8038
FF8038
FF8038
FF8038
FF83F8
FF83F8
FF83F8
FF83F8
7E0FF8
7E0FF8
7E0FF8
7E0FF8
000FF8
000FF8
000FF8
0003F0
0003F0
0003F0
0003F0
ENDCHAR
ENDFONT
